SplineFontDB: 3.0
FontName: SkyrimDaedra
FullName: Skyrim Daedra
FamilyName: Skyrim-Daedra
Weight: Medium
Copyright: Created with the help of MyScriptFont.com\nCopyright belongs to the Creator.
Version: 001.000
ItalicAngle: 0
UnderlinePosition: -153.6
UnderlineWidth: 51.2
Ascent: 819
Descent: 205
InvalidEm: 0
sfntRevision: 0x00010000
LayerCount: 2
Layer: 0 1 "Back" 1
Layer: 1 1 "Fore" 0
XUID: [1021 334 2127345828 14258640]
StyleMap: 0x0040
FSType: 0
OS2Version: 4
OS2_WeightWidthSlopeOnly: 0
OS2_UseTypoMetrics: 1
CreationTime: 1277802766
ModificationTime: 1559315217
PfmFamily: 17
TTFWeight: 500
TTFWidth: 5
LineGap: 92
VLineGap: 0
Panose: 2 0 6 3 0 0 0 0 0 0
OS2TypoAscent: 819
OS2TypoAOffset: 0
OS2TypoDescent: -205
OS2TypoDOffset: 0
OS2TypoLinegap: 92
OS2WinAscent: 819
OS2WinAOffset: 0
OS2WinDescent: 113
OS2WinDOffset: 0
HheadAscent: 819
HheadAOffset: 0
HheadDescent: -113
HheadDOffset: 0
OS2SubXSize: 666
OS2SubYSize: 717
OS2SubXOff: 0
OS2SubYOff: 143
OS2SupXSize: 666
OS2SupYSize: 717
OS2SupXOff: 0
OS2SupYOff: 492
OS2StrikeYSize: 50
OS2StrikeYPos: 264
OS2CapHeight: 800
OS2XHeight: 561
OS2Vendor: 'PfEd'
OS2CodePages: 00000001.00000000
OS2UnicodeRanges: 80000007.00000002.00000000.00000000
MarkAttachClasses: 1
DEI: 91125
TtTable: prep
PUSHW_1
 511
SCANCTRL
PUSHB_1
 1
SCANTYPE
SVTCA[y-axis]
MPPEM
PUSHB_1
 8
LT
IF
PUSHB_2
 1
 1
INSTCTRL
EIF
PUSHB_2
 70
 6
CALL
IF
POP
PUSHB_1
 16
EIF
MPPEM
PUSHB_1
 20
GT
IF
POP
PUSHB_1
 128
EIF
SCVTCI
PUSHB_1
 6
CALL
NOT
IF
EIF
PUSHB_1
 20
CALL
EndTTInstrs
TtTable: fpgm
PUSHB_1
 0
FDEF
PUSHB_1
 0
SZP0
MPPEM
PUSHB_1
 42
LT
IF
PUSHB_1
 74
SROUND
EIF
PUSHB_1
 0
SWAP
MIAP[rnd]
RTG
PUSHB_1
 6
CALL
IF
RTDG
EIF
MPPEM
PUSHB_1
 42
LT
IF
RDTG
EIF
DUP
MDRP[rp0,rnd,grey]
PUSHB_1
 1
SZP0
MDAP[no-rnd]
RTG
ENDF
PUSHB_1
 1
FDEF
DUP
MDRP[rp0,min,white]
PUSHB_1
 12
CALL
ENDF
PUSHB_1
 2
FDEF
MPPEM
GT
IF
RCVT
SWAP
EIF
POP
ENDF
PUSHB_1
 3
FDEF
ROUND[Black]
RTG
DUP
PUSHB_1
 64
LT
IF
POP
PUSHB_1
 64
EIF
ENDF
PUSHB_1
 4
FDEF
PUSHB_1
 6
CALL
IF
POP
SWAP
POP
ROFF
IF

StartChar: comma
Encoding: 44 44 0
Width: 386
Flags: W
LayerCount: 2
Fore
SplineSet
247 318 m 2,0,1
 287 332 287 332 311 333 c 0,2,3
 328 334 328 334 332 331 c 128,-1,4
 336 328 336 328 336 315 c 0,5,6
 336 295 336 295 325 281 c 0,7,8
 308 254 308 254 186 127.5 c 128,-1,9
 64 1 64 1 55 1 c 0,10,11
 50 1 50 1 50 14.5 c 128,-1,12
 50 28 50 28 57 28 c 0,13,14
 63 28 63 28 75 53 c 0,15,16
 84 77 84 77 99 97 c 0,17,18
 115 122 115 122 160 210 c 2,19,-1
 207 304 l 1,20,-1
 247 318 l 2,0,1
EndSplineSet
EndChar

StartChar: one
Encoding: 49 49 1
Width: 254
Flags: W
LayerCount: 2
Fore
SplineSet
69.1171875 604 m 0,0,1
 80.1171875 627 80.1171875 627 95.1171875 627 c 0,2,3
 106.1171875 627 106.1171875 627 122.1171875 611 c 128,-1,4
 138.1171875 595 138.1171875 595 138.1171875 584 c 0,5,6
 138.1171875 574 138.1171875 574 180.1171875 505 c 2,7,-1
 204.1171875 466 l 1,8,-1
 191.1171875 435 l 2,9,10
 175.1171875 397 175.1171875 397 135.1171875 248 c 0,11,12
 105.1171875 133 105.1171875 133 106.1171875 50 c 0,13,14
 106.1171875 -7 106.1171875 -7 100.6171875 -26 c 128,-1,15
 95.1171875 -45 95.1171875 -45 82.1171875 -45 c 0,16,17
 64.1171875 -45 64.1171875 -45 56.6171875 -30 c 128,-1,18
 49.1171875 -15 49.1171875 -15 50.1171875 20 c 0,19,20
 51.1171875 50 51.1171875 50 55.1171875 323 c 0,21,22
 57.1171875 488 57.1171875 488 60.1171875 539 c 128,-1,23
 63.1171875 590 63.1171875 590 69.1171875 604 c 0,0,1
EndSplineSet
EndChar

StartChar: two
Encoding: 50 50 2
Width: 404
Flags: W
LayerCount: 2
Fore
SplineSet
71 636 m 0,0,1
 87 660 87 660 100 651 c 128,-1,2
 113 642 113 642 128 598 c 0,3,4
 140 564 140 564 156 534 c 0,5,6
 187 474 187 474 161 384 c 0,7,8
 143 317 143 317 126 217.5 c 128,-1,9
 109 118 109 118 109 75 c 0,10,11
 109 33 109 33 98 -7 c 256,12,13
 88 -47 88 -47 92 -80 c 2,14,-1
 96 -112 l 1,15,-1
 50 -112 l 1,16,-1
 60 -74 l 2,17,18
 69 -36 69 -36 67 -8 c 0,19,20
 64 12 64 12 60 318 c 0,21,22
 60 524 60 524 62 574 c 128,-1,23
 64 624 64 624 71 636 c 0,0,1
247 644 m 0,24,25
 260 654 260 654 268 651.5 c 128,-1,26
 276 649 276 649 283 632 c 0,27,28
 294 604 294 604 324 547 c 0,29,30
 355 485 355 485 354 468 c 0,31,32
 354 453 354 453 332 375 c 0,33,34
 302 272 302 272 276 108 c 0,35,36
 269 62 269 62 268 -25 c 2,37,-1
 268 -112 l 1,38,-1
 222 -112 l 1,39,-1
 222 244 l 2,40,41
 222 597 222 597 228 617 c 0,42,43
 236 636 236 636 247 644 c 0,24,25
EndSplineSet
EndChar

StartChar: three
Encoding: 51 51 3
Width: 563
Flags: W
LayerCount: 2
Fore
SplineSet
59 608 m 0,0,1
 68 626 68 626 89 627 c 0,2,3
 104 627 104 627 109 620.5 c 128,-1,4
 114 614 114 614 122 586 c 0,5,6
 133 545 133 545 149 514 c 0,7,8
 182 451 182 451 163 380 c 0,9,10
 150 333 150 333 127 208 c 0,11,12
 114 135 114 135 104.5 58.5 c 128,-1,13
 95 -18 95 -18 97 -37 c 0,14,15
 100 -63 100 -63 97 -88 c 0,16,17
 94 -103 94 -103 90 -107.5 c 128,-1,18
 86 -112 86 -112 74 -112 c 0,19,20
 61 -112 61 -112 58 -105 c 128,-1,21
 55 -98 55 -98 53 -56 c 0,22,23
 50 19 50 19 50 295 c 0,24,25
 50 474 50 474 51.5 536 c 128,-1,26
 53 598 53 598 59 608 c 0,0,1
233 611 m 0,27,28
 243 627 243 627 257 626.5 c 128,-1,29
 271 626 271 626 276 608 c 0,30,31
 281 586 281 586 307 523 c 0,32,33
 331 466 331 466 333.5 436.5 c 128,-1,34
 336 407 336 407 321 353 c 0,35,36
 310 313 310 313 295.5 242 c 128,-1,37
 281 171 281 171 276 134 c 0,38,39
 273 103 273 103 268 -4 c 2,40,-1
 264 -112 l 1,41,-1
 205 -112 l 1,42,-1
 209 -54 l 2,43,44
 213 11 213 11 218 301 c 0,45,46
 221 483 221 483 224 542.5 c 128,-1,47
 227 602 227 602 233 611 c 0,27,28
388 589 m 0,48,49
 396 616 396 616 401 621.5 c 128,-1,50
 406 627 406 627 421 627 c 0,51,52
 437 627 437 627 442.5 621.5 c 128,-1,53
 448 616 448 616 456 592 c 0,54,55
 467 555 467 555 487 517 c 0,56,57
 509 473 509 473 512.5 448.5 c 128,-1,58
 516 424 516 424 507 384 c 0,59,60
 499 341 499 341 487 319 c 0,61,62
 478 302 478 302 478 280 c 0,63,64
 478 258 478 258 469 221 c 0,65,66
 462 198 462 198 457 167.5 c 128,-1,67
 452 137 452 137 446.5 98 c 128,-1,68
 441 59 441 59 438 41 c 0,69,70
 431 -15 431 -15 428 -56 c 2,71,-1
 423 -112 l 1,72,-1
 378 -112 l 1,73,-1
 381 160 l 2,74,75
 382 223 382 223 383 289.5 c 128,-1,76
 384 356 384 356 384.5 379 c 128,-1,77
 385 402 385 402 384.5 432.5 c 128,-1,78
 384 463 384 463 381 498 c 0,79,80
 377 550 377 550 388 589 c 0,48,49
EndSplineSet
EndChar

StartChar: four
Encoding: 52 52 4
Width: 763
Flags: W
LayerCount: 2
Fore
SplineSet
242.799804688 623 m 0,0,1
 256.799804688 639 256.799804688 639 265.299804688 631.5 c 128,-1,2
 273.799804688 624 273.799804688 624 292.799804688 579 c 0,3,4
 309.799804688 535 309.799804688 535 333.799804688 494 c 0,5,6
 370.799804688 434 370.799804688 434 347.799804688 393 c 0,7,8
 325.799804688 351 325.799804688 351 274.799804688 89 c 0,9,10
 268.799804688 50 268.799804688 50 268.799804688 1 c 0,11,12
 268.799804688 -52 268.799804688 -52 261.799804688 -83 c 0,13,14
 255.799804688 -103 255.799804688 -103 251.799804688 -107.5 c 128,-1,15
 247.799804688 -112 247.799804688 -112 230.799804688 -112 c 2,16,-1
 207.799804688 -112 l 1,17,-1
 212.799804688 -59 l 2,18,19
 216.799804688 1 216.799804688 1 218.799804688 270 c 0,20,21
 221.799804688 567 221.799804688 567 228.799804688 597 c 0,22,23
 232.799804688 613 232.799804688 613 242.799804688 623 c 0,0,1
62.7998046875 611 m 0,24,25
 71.7998046875 626 71.7998046875 626 86.7998046875 627 c 0,26,27
 97.7998046875 627 97.7998046875 627 107.799804688 611 c 128,-1,28
 117.799804688 595 117.799804688 595 128.799804688 557 c 0,29,30
 136.799804688 532 136.799804688 532 151.799804688 500 c 0,31,32
 169.799804688 464 169.799804688 464 170.799804688 438.5 c 128,-1,33
 171.799804688 413 171.799804688 413 156.799804688 349 c 0,34,35
 132.799804688 254 132.799804688 254 101.799804688 38 c 0,36,37
 93.7998046875 -24 93.7998046875 -24 83.2998046875 -68 c 128,-1,38
 72.7998046875 -112 72.7998046875 -112 64.7998046875 -112 c 0,39,40
 54.7998046875 -112 54.7998046875 -112 51.7998046875 -26.5 c 128,-1,41
 48.7998046875 59 48.7998046875 59 50.7998046875 297 c 0,42,43
 51.7998046875 485 51.7998046875 485 53.7998046875 543.5 c 128,-1,44
 55.7998046875 602 55.7998046875 602 62.7998046875 611 c 0,24,25
421.799804688 611 m 0,45,46
 434.799804688 631 434.799804688 631 452.799804688 626 c 128,-1,47
 470.799804688 621 470.799804688 621 477.799804688 593 c 0,48,49
 483.799804688 571 483.799804688 571 498.799804688 535.5 c 128,-1,50
 513.799804688 500 513.799804688 500 521.799804688 486 c 0,51,52
 531.799804688 470 531.799804688 470 530.799804688 426.5 c 128,-1,53
 529.799804688 383 529.799804688 383 519.799804688 362 c 0,54,55
 508.799804688 339 508.799804688 339 508.799804688 319 c 0,56,57
 508.799804688 297 508.799804688 297 498.799804688 261 c 0,58,59
 487.799804688 223 487.799804688 223 481.799804688 177 c 0,60,61
 480.799804688 168 480.799804688 168 468.799804688 81 c 0,62,63
 460.799804688 34 460.799804688 34 461.799804688 8 c 0,64,65
 463.799804688 -21 463.799804688 -21 453.799804688 -66.5 c 128,-1,66
 443.799804688 -112 443.799804688 -112 436.799804688 -112 c 0,67,68
 428.799804688 -112 428.799804688 -112 428.799804688 -86 c 0,69,70
 428.799804688 -59 428.799804688 -59 417.799804688 -1 c 0,71,72
 407.799804688 64 407.799804688 64 409.299804688 329 c 128,-1,73
 410.799804688 594 410.799804688 594 421.799804688 611 c 0,45,46
594.799804688 611 m 0,74,75
 620.799804688 651 620.799804688 651 647.799804688 585 c 0,76,77
 664.799804688 543 664.799804688 543 689.799804688 494 c 0,78,79
 708.799804688 455 708.799804688 455 712.299804688 439 c 128,-1,80
 715.799804688 423 715.799804688 423 706.799804688 407 c 0,81,82
 694.799804688 384 694.799804688 384 672.799804688 286 c 128,-1,83
 650.799804688 188 650.799804688 188 635.799804688 94 c 0,84,85
 627.799804688 49 627.799804688 49 627.799804688 -32 c 2,86,-1
 627.799804688 -112 l 1,87,-1
 566.799804688 -112 l 1,88,-1
 570.799804688 -59 l 2,89,90
 574.799804688 -6 574.799804688 -6 579.799804688 294 c 0,91,92
 582.799804688 481 582.799804688 481 585.799804688 541.5 c 128,-1,93
 588.799804688 602 588.799804688 602 594.799804688 611 c 0,74,75
EndSplineSet
EndChar

StartChar: five
Encoding: 53 53 5
Width: 513
Flags: W
LayerCount: 2
Fore
SplineSet
85 716 m 0,0,1
 99 733 99 733 108 733 c 256,2,3
 116 733 116 733 134 678 c 0,4,5
 149 633 149 633 176 578 c 0,6,7
 190 548 190 548 194 534 c 128,-1,8
 198 520 198 520 196 501 c 0,9,10
 192 467 192 467 190 454 c 2,11,-1
 187 437 l 1,12,-1
 323 433 l 2,13,14
 456 430 456 430 461 426 c 0,15,16
 466 420 466 420 458.5 400.5 c 128,-1,17
 451 381 451 381 433 361 c 0,18,19
 407 331 407 331 374 323 c 128,-1,20
 341 315 341 315 257 319 c 0,21,22
 168 322 168 322 161 313 c 0,23,24
 156 306 156 306 142.5 239 c 128,-1,25
 129 172 129 172 119 96 c 0,26,27
 112 47 112 47 112 -32 c 2,28,-1
 112 -112 l 1,29,-1
 50 -112 l 1,30,-1
 55 -59 l 2,31,32
 59 0 59 0 62 317 c 0,33,34
 64 638 64 638 69 671 c 0,35,36
 72 699 72 699 85 716 c 0,0,1
EndSplineSet
EndChar

StartChar: six
Encoding: 54 54 6
Width: 684
Flags: W
LayerCount: 2
Fore
SplineSet
58 785 m 0,0,1
 63 809 63 809 67.5 814 c 128,-1,2
 72 819 72 819 87 819 c 0,3,4
 103 819 103 819 109 811 c 128,-1,5
 115 803 115 803 131 755 c 0,6,7
 149 696 149 696 167 659 c 0,8,9
 186 619 186 619 191 594.5 c 128,-1,10
 196 570 196 570 185 547 c 0,11,12
 174 516 174 516 183 509 c 0,13,14
 196 500 196 500 306 501 c 0,15,16
 312 501 312 501 321 502 c 2,17,-1
 450 504 l 1,18,-1
 450 475 l 2,19,20
 450 449 450 449 431 425.5 c 128,-1,21
 412 402 412 402 381 390 c 0,22,23
 356 381 356 381 333 380.5 c 128,-1,24
 310 380 310 380 229 384 c 2,25,-1
 152 388 l 1,26,-1
 144 359 l 2,27,28
 129 297 129 297 117 204 c 0,29,30
 114 184 114 184 109.5 148 c 128,-1,31
 105 112 105 112 102.5 95 c 128,-1,32
 100 78 100 78 98 45.5 c 128,-1,33
 96 13 96 13 96 -25 c 2,34,-1
 96 -112 l 1,35,-1
 50 -112 l 1,36,-1
 50 319 l 2,37,38
 50 753 50 753 58 785 c 0,0,1
510 781 m 0,39,40
 515 809 515 809 519 814 c 128,-1,41
 523 819 523 819 538.5 819 c 128,-1,42
 554 819 554 819 558 815 c 128,-1,43
 562 811 562 811 564 792 c 0,44,45
 570 739 570 739 612 647 c 0,46,47
 631 607 631 607 633.5 588.5 c 128,-1,48
 636 570 636 570 626 545 c 0,49,50
 615 516 615 516 579 331 c 0,51,52
 566 264 566 264 560 213.5 c 128,-1,53
 554 163 554 163 549 65 c 0,54,55
 544 -43 544 -43 539 -83 c 0,56,57
 536 -103 536 -103 531.5 -107.5 c 128,-1,58
 527 -112 527 -112 511 -112 c 2,59,-1
 487 -112 l 1,60,-1
 493 -19 l 2,61,62
 497 90 497 90 499 407 c 0,63,64
 502 745 502 745 510 781 c 0,39,40
EndSplineSet
EndChar

StartChar: seven
Encoding: 55 55 7
Width: 836
Flags: W
LayerCount: 2
Fore
SplineSet
55 814 m 0,0,1
 58 819 58 819 82 819 c 0,2,3
 95 819 95 819 99 816 c 128,-1,4
 103 813 103 813 103 804 c 0,5,6
 103 768 103 768 154 663 c 0,7,8
 169 630 169 630 172.5 615.5 c 128,-1,9
 176 601 176 601 173 584 c 0,10,11
 168 553 168 553 168 537 c 2,12,-1
 167 517 l 1,13,-1
 301 513 l 2,14,15
 434 510 434 510 439 506 c 0,16,17
 444 501 444 501 435.5 473 c 128,-1,18
 427 445 427 445 416 431 c 0,19,20
 402 413 402 413 369 402 c 128,-1,21
 336 391 336 391 300 393 c 0,22,23
 143 401 143 401 136 387 c 0,24,25
 123 360 123 360 110 275.5 c 128,-1,26
 97 191 97 191 89 84 c 0,27,28
 77 -98 77 -98 72 -108 c 0,29,30
 70 -112 70 -112 63 -112 c 256,31,32
 56 -112 56 -112 53 -80 c 0,33,34
 50 -30 50 -30 50 349 c 0,35,36
 50 811 50 811 55 814 c 0,0,1
490 795 m 0,37,38
 495 811 495 811 499.5 815 c 128,-1,39
 504 819 504 819 519 819 c 256,40,41
 534 819 534 819 539 815 c 128,-1,42
 544 811 544 811 549 792 c 0,43,44
 557 760 557 760 577 707 c 0,45,46
 602 636 602 636 605 608 c 128,-1,47
 608 580 608 580 599 542 c 0,48,49
 593 516 593 516 589 497.5 c 128,-1,50
 585 479 585 479 583.5 468.5 c 128,-1,51
 582 458 582 458 578 433 c 128,-1,52
 574 408 574 408 568 380 c 0,53,54
 561 334 561 334 550.5 251.5 c 128,-1,55
 540 169 540 169 536 143 c 0,56,57
 529 102 529 102 528 17 c 0,58,59
 527 -71 527 -71 523 -88 c 0,60,61
 519 -104 519 -104 507.5 -109.5 c 128,-1,62
 496 -115 496 -115 489 -103 c 0,63,64
 483 -94 483 -94 483.5 339 c 128,-1,65
 484 772 484 772 490 795 c 0,37,38
665 808 m 0,66,67
 670 819 670 819 692 819 c 0,68,69
 706 819 706 819 710.5 815.5 c 128,-1,70
 715 812 715 812 717 798 c 0,71,72
 724 753 724 753 766 662 c 0,73,74
 784 621 784 621 786.5 603.5 c 128,-1,75
 789 586 789 586 778 551 c 0,76,77
 743 428 743 428 710 188 c 0,78,79
 703 144 703 144 702 33 c 0,80,81
 701 -68 701 -68 696 -88.5 c 128,-1,82
 691 -109 691 -109 667 -111 c 2,83,-1
 641 -113 l 1,84,-1
 645 -20 l 2,85,86
 649 79 649 79 654 433 c 0,87,88
 659 797 659 797 665 808 c 0,66,67
EndSplineSet
EndChar

StartChar: eight
Encoding: 56 56 8
Width: 976
Flags: W
LayerCount: 2
Fore
SplineSet
72 781 m 0,0,1
 77 805 77 805 81 812 c 128,-1,2
 85 819 85 819 94 819 c 128,-1,3
 103 819 103 819 108.5 809.5 c 128,-1,4
 114 800 114 800 123 765 c 0,5,6
 140 704 140 704 163 651 c 0,7,8
 179 609 179 609 182 593 c 128,-1,9
 185 577 185 577 182 540 c 2,10,-1
 177 486 l 1,11,-1
 287 486 l 2,12,13
 375 486 375 486 406 483 c 128,-1,14
 437 480 437 480 437 471 c 0,15,16
 437 464 437 464 420 428 c 0,17,18
 402 391 402 391 376.5 377.5 c 128,-1,19
 351 364 351 364 301 365 c 0,20,21
 252 365 252 365 209 370 c 0,22,23
 182 374 182 374 174 372.5 c 128,-1,24
 166 371 166 371 155 360 c 0,25,26
 139 345 139 345 138 325 c 0,27,28
 138 303 138 303 127 251 c 0,29,30
 120 207 120 207 100 -60 c 2,31,-1
 96 -112 l 1,32,-1
 50 -112 l 1,33,-1
 55 -31 l 2,34,35
 59 40 59 40 62 397 c 0,36,37
 65 743 65 743 72 781 c 0,0,1
639 795 m 0,38,39
 657 830 657 830 670 816 c 0,40,41
 682 802 682 802 708 710 c 0,42,43
 712 695 712 695 734 648 c 0,44,45
 769 573 769 573 750 524 c 0,46,47
 742 501 742 501 726 426 c 128,-1,48
 710 351 710 351 710 334 c 0,49,50
 710 311 710 311 699 270 c 0,51,52
 683 205 683 205 671 35 c 0,53,54
 667 -30 667 -30 657.5 -71 c 128,-1,55
 648 -112 648 -112 639 -112 c 0,56,57
 629 -112 629 -112 626.5 -15 c 128,-1,58
 624 82 624 82 625 384 c 0,59,60
 627 659 627 659 629 718 c 128,-1,61
 631 777 631 777 639 795 c 0,38,39
817 781 m 0,62,63
 822 805 822 805 826 812 c 128,-1,64
 830 819 830 819 839 819 c 128,-1,65
 848 819 848 819 853 809.5 c 128,-1,66
 858 800 858 800 867 765 c 0,67,68
 878 717 878 717 906 646 c 0,69,70
 925 596 925 596 926.5 575.5 c 128,-1,71
 928 555 928 555 913 490 c 0,72,73
 902 444 902 444 887 344 c 0,74,75
 883 321 883 321 878.5 292.5 c 128,-1,76
 874 264 874 264 872 257.5 c 128,-1,77
 870 251 870 251 867 230 c 128,-1,78
 864 209 864 209 864 206 c 128,-1,79
 864 203 864 203 861.5 175.5 c 128,-1,80
 859 148 859 148 858.5 135.5 c 128,-1,81
 858 123 858 123 855 78 c 0,82,83
 850 -37 850 -37 846 -77 c 0,84,85
 843 -104 843 -104 839.5 -108 c 128,-1,86
 836 -112 836 -112 818 -112 c 2,87,-1
 795 -112 l 1,88,-1
 800 -24 l 2,89,90
 804 51 804 51 806 403 c 0,91,92
 809 743 809 743 817 781 c 0,62,63
479 768 m 0,93,94
 482 787 482 787 486.5 793.5 c 128,-1,95
 491 800 491 800 500 800 c 0,96,97
 514 800 514 800 521.5 784.5 c 128,-1,98
 529 769 529 769 543 720 c 0,99,100
 555 673 555 673 570 631 c 0,101,102
 582 600 582 600 581.5 577.5 c 128,-1,103
 581 555 581 555 563 451 c 0,104,105
 561 437 561 437 551 370.5 c 128,-1,106
 541 304 541 304 537 274 c 0,107,108
 526 208 526 208 513 -33 c 2,109,-1
 509 -112 l 1,110,-1
 463 -112 l 1,111,-1
 467 -6 l 2,112,113
 472 86 472 86 474 417 c 0,114,115
 475 736 475 736 479 768 c 0,93,94
EndSplineSet
EndChar

StartChar: nine
Encoding: 57 57 9
Width: 865
Flags: W
LayerCount: 2
Fore
SplineSet
75.2724609375 724 m 0,0,1
 92.2724609375 744 92.2724609375 744 104.272460938 711 c 0,2,3
 107.272460938 702 107.272460938 702 110.272460938 688 c 0,4,5
 122.272460938 642 122.272460938 642 139.272460938 600 c 0,6,7
 149.272460938 573 149.272460938 573 151.772460938 557.5 c 128,-1,8
 154.272460938 542 154.272460938 542 152.272460938 515 c 2,9,-1
 149.272460938 473 l 1,10,-1
 224.272460938 473 l 2,11,12
 289.272460938 473 289.272460938 473 314.772460938 469.5 c 128,-1,13
 340.272460938 466 340.272460938 466 340.272460938 456 c 0,14,15
 340.272460938 439 340.272460938 439 326.272460938 414 c 128,-1,16
 312.272460938 389 312.272460938 389 295.272460938 380 c 0,17,18
 277.272460938 369 277.272460938 369 251.772460938 366.5 c 128,-1,19
 226.272460938 364 226.272460938 364 180.272460938 371 c 0,20,21
 178.272460938 371 178.272460938 371 173.272460938 372 c 0,22,23
 135.272460938 377 135.272460938 377 127.772460938 360 c 128,-1,24
 120.272460938 343 120.272460938 343 109.272460938 239 c 0,25,26
 108.272460938 225 108.272460938 225 107.272460938 217 c 0,27,28
 103.272460938 177 103.272460938 177 96.2724609375 59 c 0,29,30
 90.2724609375 -39 90.2724609375 -39 85.2724609375 -43 c 0,31,32
 78.2724609375 -50 78.2724609375 -50 67.7724609375 -39.5 c 128,-1,33
 57.2724609375 -29 57.2724609375 -29 53.2724609375 -11 c 0,34,35
 47.2724609375 14 47.2724609375 14 52.2724609375 54 c 0,36,37
 57.2724609375 97 57.2724609375 97 58.2724609375 385 c 0,38,39
 59.2724609375 599 59.2724609375 599 62.2724609375 655 c 128,-1,40
 65.2724609375 711 65.2724609375 711 75.2724609375 724 c 0,0,1
367.272460938 705 m 0,41,42
 376.272460938 720 376.272460938 720 391.272460938 720 c 0,43,44
 400.272460938 720 400.272460938 720 404.772460938 710 c 128,-1,45
 409.272460938 700 409.272460938 700 416.272460938 667 c 0,46,47
 427.272460938 614 427.272460938 614 442.272460938 583 c 0,48,49
 452.272460938 559 452.272460938 559 452.272460938 540.5 c 128,-1,50
 452.272460938 522 452.272460938 522 440.272460938 473 c 0,51,52
 420.272460938 380 420.272460938 380 401.272460938 131 c 0,53,54
 395.272460938 44 395.272460938 44 387.272460938 22 c 0,55,56
 380.272460938 -2 380.272460938 -2 380.272460938 -24 c 256,57,58
 380.272460938 -46 380.272460938 -46 371.272460938 -45 c 0,59,60
 352.272460938 -45 352.272460938 -45 355.272460938 403 c 0,61,62
 356.272460938 583 356.272460938 583 358.772460938 639.5 c 128,-1,63
 361.272460938 696 361.272460938 696 367.272460938 705 c 0,41,42
486.272460938 709 m 0,64,65
 503.272460938 729 503.272460938 729 516.272460938 708 c 0,66,67
 527.272460938 689 527.272460938 689 553.272460938 608 c 0,68,69
 568.272460938 558 568.272460938 558 570.772460938 542 c 128,-1,70
 573.272460938 526 573.272460938 526 568.272460938 496 c 0,71,72
 561.272460938 461 561.272460938 461 550.272460938 397.5 c 128,-1,73
 539.272460938 334 539.272460938 334 533.272460938 301 c 0,74,75
 520.272460938 238 520.272460938 238 520.272460938 158 c 0,76,77
 520.272460938 77 520.272460938 77 510.272460938 38 c 0,78,79
 501.272460938 3 501.272460938 3 500.272460938 -30 c 0,80,81
 500.272460938 -59 500.272460938 -59 491.272460938 -58 c 0,82,83
 471.272460938 -58 471.272460938 -58 474.272460938 415 c 0,84,85
 477.272460938 697 477.272460938 697 486.272460938 709 c 0,64,65
619.272460938 709 m 0,86,87
 627.272460938 720 627.272460938 720 635.272460938 720 c 256,88,89
 643.272460938 720 643.272460938 720 669.272460938 636 c 0,90,91
 689.272460938 568 689.272460938 568 691.272460938 534.5 c 128,-1,92
 693.272460938 501 693.272460938 501 679.272460938 424 c 0,93,94
 663.272460938 333 663.272460938 333 654.272460938 227 c 0,95,96
 648.272460938 156 648.272460938 156 645.272460938 151 c 0,97,98
 644.272460938 144 644.272460938 144 649.272460938 111 c 0,99,100
 654.272460938 76 654.272460938 76 643.272460938 37 c 0,101,102
 633.272460938 -4 633.272460938 -4 633.272460938 -32 c 0,103,104
 633.272460938 -59 633.272460938 -59 624.272460938 -58 c 0,105,106
 605.272460938 -58 605.272460938 -58 608.272460938 411 c 0,107,108
 610.272460938 697 610.272460938 697 619.272460938 709 c 0,86,87
739.272460938 709 m 0,109,110
 755.272460938 728 755.272460938 728 765.272460938 707 c 0,111,112
 770.272460938 696 770.272460938 696 778.272460938 669 c 0,113,114
 795.272460938 606 795.272460938 606 805.272460938 579 c 0,115,116
 814.272460938 554 814.272460938 554 815.272460938 541.5 c 128,-1,117
 816.272460938 529 816.272460938 529 811.272460938 509 c 0,118,119
 796.272460938 435 796.272460938 435 780.772460938 322.5 c 128,-1,120
 765.272460938 210 765.272460938 210 762.272460938 115 c 0,121,122
 759.272460938 23 759.272460938 23 755.272460938 -11 c 128,-1,123
 751.272460938 -45 751.272460938 -45 743.272460938 -45 c 0,124,125
 727.272460938 -45 727.272460938 -45 721.772460938 -24.5 c 128,-1,126
 716.272460938 -4 716.272460938 -4 717.272460938 57 c 0,127,128
 723.272460938 434 723.272460938 434 728.272460938 567.5 c 128,-1,129
 733.272460938 701 733.272460938 701 739.272460938 709 c 0,109,110
EndSplineSet
EndChar

StartChar: A
Encoding: 65 65 10
Width: 732
Flags: W
LayerCount: 2
Fore
SplineSet
70.22265625 722 m 0,0,1
 96.22265625 726 96.22265625 726 254.22265625 720 c 0,2,3
 256.22265625 719 256.22265625 719 441.22265625 723 c 0,4,5
 623.22265625 726 623.22265625 726 652.22265625 722 c 0,6,7
 672.22265625 720 672.22265625 720 677.72265625 716.5 c 128,-1,8
 683.22265625 713 683.22265625 713 682.22265625 705 c 0,9,10
 682.22265625 696 682.22265625 696 673.72265625 688.5 c 128,-1,11
 665.22265625 681 665.22265625 681 642.22265625 671 c 0,12,13
 603.22265625 653 603.22265625 653 554.22265625 606 c 0,14,15
 519.22265625 572 519.22265625 572 502.22265625 542.5 c 128,-1,16
 485.22265625 513 485.22265625 513 473.22265625 466 c 0,17,18
 469.22265625 450 469.22265625 450 461.22265625 448 c 128,-1,19
 453.22265625 446 453.22265625 446 439.22265625 460 c 0,20,21
 422.22265625 476 422.22265625 476 425.22265625 502 c 128,-1,22
 428.22265625 528 428.22265625 528 454.22265625 582 c 0,23,24
 484.22265625 644 484.22265625 644 484.22265625 655 c 0,25,26
 484.22265625 664 484.22265625 664 473.72265625 672 c 128,-1,27
 463.22265625 680 463.22265625 680 434.22265625 689 c 0,28,29
 411.22265625 696 411.22265625 696 400.72265625 696 c 128,-1,30
 390.22265625 696 390.22265625 696 362.22265625 689 c 0,31,32
 322.22265625 678 322.22265625 678 306.22265625 665 c 0,33,34
 295.22265625 656 295.22265625 656 275.22265625 609 c 128,-1,35
 255.22265625 562 255.22265625 562 245.22265625 523 c 0,36,37
 238.22265625 496 238.22265625 496 238.22265625 383.5 c 128,-1,38
 238.22265625 271 238.22265625 271 246.22265625 242 c 0,39,40
 252.22265625 212 252.22265625 212 278.22265625 174 c 0,41,42
 303.22265625 137 303.22265625 137 324.22265625 97 c 0,43,44
 371.22265625 8 371.22265625 8 400.22265625 8 c 0,45,46
 412.22265625 8 412.22265625 8 433.72265625 28.5 c 128,-1,47
 455.22265625 49 455.22265625 49 460.22265625 67 c 0,48,49
 464.22265625 81 464.22265625 81 481.22265625 81 c 0,50,51
 491.22265625 81 491.22265625 81 494.22265625 77.5 c 128,-1,52
 497.22265625 74 497.22265625 74 497.22265625 61 c 0,53,54
 497.22265625 41 497.22265625 41 481.22265625 10 c 0,55,56
 464.22265625 -25 464.22265625 -25 460.22265625 -54 c 0,57,58
 457.22265625 -77 457.22265625 -77 453.72265625 -81 c 128,-1,59
 450.22265625 -85 450.22265625 -85 432.22265625 -85 c 0,60,61
 417.22265625 -85 417.22265625 -85 403.72265625 -76.5 c 128,-1,62
 390.22265625 -68 390.22265625 -68 356.22265625 -33 c 0,63,64
 285.22265625 35 285.22265625 35 217.22265625 134 c 0,65,66
 201.22265625 159 201.22265625 159 178.22265625 185 c 0,67,68
 154.22265625 212 154.22265625 212 115.22265625 278 c 0,69,70
 86.22265625 325 86.22265625 325 80.72265625 340.5 c 128,-1,71
 75.22265625 356 75.22265625 356 75.22265625 384 c 0,72,73
 75.22265625 423 75.22265625 423 96.22265625 464 c 0,74,75
 118.22265625 505 118.22265625 505 133.22265625 524 c 0,76,77
 147.22265625 541 147.22265625 541 162.22265625 570 c 128,-1,78
 177.22265625 599 177.22265625 599 177.22265625 609 c 0,79,80
 177.22265625 624 177.22265625 624 165.22265625 643 c 128,-1,81
 153.22265625 662 153.22265625 662 140.22265625 669 c 0,82,83
 121.22265625 678 121.22265625 678 95.22265625 683 c 0,84,85
 56.22265625 690 56.22265625 690 50.22265625 707 c 0,86,87
 48.22265625 716 48.22265625 716 64.22265625 720 c 0,88,89
 67.22265625 721 67.22265625 721 70.22265625 722 c 0,0,1
EndSplineSet
EndChar

StartChar: B
Encoding: 66 66 11
Width: 690
Flags: W
LayerCount: 2
Fore
SplineSet
85.4541015625 774 m 0,0,1
 103.454101562 777 103.454101562 777 358.454101562 777 c 0,2,3
 530.454101562 776 530.454101562 776 573.454101562 774 c 128,-1,4
 616.454101562 772 616.454101562 772 623.454101562 765 c 0,5,6
 633.454101562 755 633.454101562 755 638.454101562 702 c 128,-1,7
 643.454101562 649 643.454101562 649 636.454101562 610 c 0,8,9
 631.454101562 575 631.454101562 575 604.954101562 544.5 c 128,-1,10
 578.454101562 514 578.454101562 514 541.454101562 501 c 0,11,12
 499.454101562 487 499.454101562 487 497.454101562 486 c 0,13,14
 484.454101562 486 484.454101562 486 505.454101562 518 c 0,15,16
 509.454101562 524 509.454101562 524 516.454101562 530 c 0,17,18
 529.454101562 545 529.454101562 545 536.954101562 557 c 128,-1,19
 544.454101562 569 544.454101562 569 550.454101562 585.5 c 128,-1,20
 556.454101562 602 556.454101562 602 552.954101562 620.5 c 128,-1,21
 549.454101562 639 549.454101562 639 539.454101562 662 c 0,22,23
 530.454101562 680 530.454101562 680 519.954101562 689 c 128,-1,24
 509.454101562 698 509.454101562 698 483.454101562 712 c 0,25,26
 452.454101562 726 452.454101562 726 434.954101562 729.5 c 128,-1,27
 417.454101562 733 417.454101562 733 363.454101562 733 c 0,28,29
 303.454101562 733 303.454101562 733 280.454101562 727 c 128,-1,30
 257.454101562 721 257.454101562 721 238.454101562 700 c 0,31,32
 229.454101562 690 229.454101562 690 228.954101562 684.5 c 128,-1,33
 228.454101562 679 228.454101562 679 235.454101562 665 c 0,34,35
 244.454101562 646 244.454101562 646 269.454101562 613 c 0,36,37
 304.454101562 567 304.454101562 567 341.954101562 508 c 128,-1,38
 379.454101562 449 379.454101562 449 398.454101562 410 c 0,39,40
 416.454101562 373 416.454101562 373 419.954101562 356 c 128,-1,41
 423.454101562 339 423.454101562 339 423.454101562 297 c 2,42,-1
 423.454101562 237 l 1,43,-1
 392.454101562 190 l 2,44,45
 346.454101562 120 346.454101562 120 314.954101562 88.5 c 128,-1,46
 283.454101562 57 283.454101562 57 206.454101562 -1 c 0,47,48
 89.4541015625 -88 89.4541015625 -88 66.4541015625 -85 c 0,49,50
 56.4541015625 -84 56.4541015625 -84 53.4541015625 -69 c 0,51,52
 50.4541015625 -49 50.4541015625 -49 55.4541015625 -30 c 0,53,54
 62.4541015625 -8 62.4541015625 -8 61.4541015625 159.5 c 128,-1,55
 60.4541015625 327 60.4541015625 327 54.4541015625 353 c 0,56,57
 47.4541015625 384 47.4541015625 384 51.4541015625 413 c 0,58,59
 56.4541015625 448 56.4541015625 448 72.4541015625 446 c 0,60,61
 91.4541015625 444 91.4541015625 444 101.454101562 400 c 0,62,63
 103.454101562 392 103.454101562 392 104.454101562 382 c 0,64,65
 127.454101562 167 127.454101562 167 168.454101562 122 c 0,66,67
 186.454101562 104 186.454101562 104 201.954101562 102 c 128,-1,68
 217.454101562 100 217.454101562 100 239.454101562 115 c 0,69,70
 267.454101562 131 267.454101562 131 277.454101562 155 c 128,-1,71
 287.454101562 179 287.454101562 179 287.454101562 229 c 0,72,73
 287.454101562 280 287.454101562 280 277.454101562 300.5 c 128,-1,74
 267.454101562 321 267.454101562 321 214.454101562 378 c 0,75,76
 169.454101562 425 169.454101562 425 161.454101562 452 c 0,77,78
 154.454101562 478 154.454101562 478 154.454101562 568 c 0,79,80
 154.454101562 652 154.454101562 652 143.954101562 682.5 c 128,-1,81
 133.454101562 713 133.454101562 713 94.4541015625 735 c 0,82,83
 42.4541015625 764 42.4541015625 764 85.4541015625 774 c 0,0,1
EndSplineSet
EndChar

StartChar: C
Encoding: 67 67 12
Width: 706
Flags: W
LayerCount: 2
Fore
SplineSet
99 772 m 0,0,1
 121 778 121 778 354 778.5 c 128,-1,2
 587 779 587 779 612 773 c 256,3,4
 638 767 638 767 645 760 c 0,5,6
 652 754 652 754 654 488 c 0,7,8
 655 218 655 218 656 208 c 0,9,10
 657 194 657 194 652 70 c 0,11,12
 650 23 650 23 648 -3.5 c 128,-1,13
 646 -30 646 -30 642.5 -45 c 128,-1,14
 639 -60 639 -60 634.5 -63.5 c 128,-1,15
 630 -67 630 -67 622 -63 c 0,16,17
 611 -59 611 -59 607 -24 c 128,-1,18
 603 11 603 11 603 123 c 0,19,20
 603 266 603 266 597 300 c 0,21,22
 591 337 591 337 584 387 c 0,23,24
 571 479 571 479 557.5 522 c 128,-1,25
 544 565 544 565 524 575 c 0,26,27
 517 579 517 579 495 602 c 0,28,29
 480 619 480 619 483.5 629 c 128,-1,30
 487 639 487 639 514 644 c 0,31,32
 530 646 530 646 555.5 668.5 c 128,-1,33
 581 691 581 691 572 705 c 0,34,35
 568 713 568 713 534 715 c 128,-1,36
 500 717 500 717 363 718 c 0,37,38
 230 719 230 719 193.5 717.5 c 128,-1,39
 157 716 157 716 151 709 c 0,40,41
 142 698 142 698 151.5 686.5 c 128,-1,42
 161 675 161 675 201 654 c 0,43,44
 247 628 247 628 249 623 c 256,45,46
 251 617 251 617 216 575 c 0,47,48
 156 505 156 505 144 420 c 0,49,50
 139 379 139 379 128 327 c 0,51,52
 118 275 118 275 118 198 c 0,53,54
 118 142 118 142 110 80 c 128,-1,55
 102 18 102 18 91 -16 c 256,56,57
 80 -51 80 -51 69 -32 c 0,58,59
 64 -25 64 -25 57 58 c 128,-1,60
 50 141 50 141 50 181 c 0,61,62
 52 242 52 242 51 357 c 0,63,64
 50 550 50 550 54 638 c 0,65,66
 57 712 57 712 66 738.5 c 128,-1,67
 75 765 75 765 99 772 c 0,0,1
EndSplineSet
EndChar

StartChar: D
Encoding: 68 68 13
Width: 673
Flags: W
LayerCount: 2
Fore
SplineSet
263.599609375 774 m 2,0,1
 343.599609375 776 343.599609375 776 474.599609375 776 c 0,2,3
 550.599609375 776 550.599609375 776 571.599609375 774 c 128,-1,4
 592.599609375 772 592.599609375 772 600.599609375 764 c 256,5,6
 608.599609375 756 608.599609375 756 611.599609375 706.5 c 128,-1,7
 614.599609375 657 614.599609375 657 617.599609375 444 c 0,8,9
 618.599609375 369 618.599609375 369 620.099609375 286 c 128,-1,10
 621.599609375 203 621.599609375 203 622.599609375 139 c 128,-1,11
 623.599609375 75 623.599609375 75 623.599609375 68 c 0,12,13
 625.599609375 -32 625.599609375 -32 605.599609375 -44 c 0,14,15
 595.599609375 -49 595.599609375 -49 584.599609375 -25 c 0,16,17
 582.599609375 -19 582.599609375 -19 580.599609375 -11 c 0,18,19
 569.599609375 22 569.599609375 22 569.599609375 94 c 256,20,21
 569.599609375 167 569.599609375 167 562.599609375 187 c 0,22,23
 555.599609375 214 555.599609375 214 553.599609375 350 c 0,24,25
 549.599609375 492 549.599609375 492 543.599609375 534 c 0,26,27
 538.599609375 574 538.599609375 574 519.599609375 612 c 128,-1,28
 500.599609375 650 500.599609375 650 476.599609375 668 c 0,29,30
 470.599609375 672 470.599609375 672 462.599609375 678 c 128,-1,31
 454.599609375 684 454.599609375 684 446.599609375 690.5 c 128,-1,32
 438.599609375 697 438.599609375 697 436.599609375 699 c 0,33,34
 416.599609375 715 416.599609375 715 357.099609375 734 c 128,-1,35
 297.599609375 753 297.599609375 753 266.599609375 753 c 0,36,37
 234.599609375 753 234.599609375 753 209.099609375 743.5 c 128,-1,38
 183.599609375 734 183.599609375 734 183.599609375 723 c 256,39,40
 183.599609375 712 183.599609375 712 212.099609375 681.5 c 128,-1,41
 240.599609375 651 240.599609375 651 263.599609375 638 c 0,42,43
 288.599609375 625 288.599609375 625 289.099609375 610.5 c 128,-1,44
 289.599609375 596 289.599609375 596 267.599609375 563 c 0,45,46
 245.599609375 530 245.599609375 530 240.599609375 492 c 0,47,48
 235.599609375 434 235.599609375 434 215.599609375 433 c 0,49,50
 206.599609375 434 206.599609375 434 196.599609375 449 c 0,51,52
 187.599609375 464 187.599609375 464 184.599609375 532 c 0,53,54
 181.599609375 574 181.599609375 574 178.599609375 589 c 128,-1,55
 175.599609375 604 175.599609375 604 169.599609375 609 c 0,56,57
 157.599609375 616 157.599609375 616 140.599609375 600 c 0,58,59
 128.599609375 589 128.599609375 589 126.099609375 577 c 128,-1,60
 123.599609375 565 123.599609375 565 123.599609375 524 c 0,61,62
 123.599609375 448 123.599609375 448 137.599609375 399.5 c 128,-1,63
 151.599609375 351 151.599609375 351 186.599609375 303 c 0,64,65
 200.599609375 284 200.599609375 284 215.599609375 271 c 128,-1,66
 230.599609375 258 230.599609375 258 282.599609375 218 c 0,67,68
 313.599609375 195 313.599609375 195 325.099609375 173 c 128,-1,69
 336.599609375 151 336.599609375 151 336.599609375 115 c 0,70,71
 336.599609375 85 336.599609375 85 345.099609375 65 c 128,-1,72
 353.599609375 45 353.599609375 45 375.599609375 25 c 0,73,74
 391.599609375 11 391.599609375 11 403.599609375 -9 c 128,-1,75
 415.599609375 -29 415.599609375 -29 415.599609375 -39 c 0,76,77
 415.599609375 -57 415.599609375 -57 368.599609375 -35 c 0,78,79
 351.599609375 -27 351.599609375 -27 332.599609375 -14 c 0,80,81
 250.599609375 39 250.599609375 39 183.599609375 120 c 128,-1,82
 116.599609375 201 116.599609375 201 84.599609375 284 c 0,83,84
 59.599609375 345 59.599609375 345 53.599609375 389.5 c 128,-1,85
 47.599609375 434 47.599609375 434 51.599609375 510 c 0,86,87
 53.599609375 562 53.599609375 562 58.599609375 581 c 128,-1,88
 63.599609375 600 63.599609375 600 85.599609375 646 c 0,89,90
 116.599609375 708 116.599609375 708 141.599609375 740 c 2,91,-1
 167.599609375 772 l 1,92,-1
 263.599609375 774 l 2,0,1
EndSplineSet
EndChar

StartChar: E
Encoding: 69 69 14
Width: 674
Flags: W
LayerCount: 2
Fore
SplineSet
265.571289062 786 m 0,0,1
 301.571289062 794 301.571289062 794 346.571289062 786 c 0,2,3
 373.571289062 780 373.571289062 780 489.571289062 777 c 0,4,5
 562.571289062 776 562.571289062 776 584.071289062 774 c 128,-1,6
 605.571289062 772 605.571289062 772 612.571289062 764 c 0,7,8
 620.571289062 756 620.571289062 756 622.571289062 716.5 c 128,-1,9
 624.571289062 677 624.571289062 677 624.571289062 504 c 0,10,11
 624.571289062 341 624.571289062 341 622.571289062 296 c 128,-1,12
 620.571289062 251 620.571289062 251 614.571289062 244 c 0,13,14
 607.571289062 237 607.571289062 237 600.571289062 241.5 c 128,-1,15
 593.571289062 246 593.571289062 246 572.571289062 270 c 0,16,17
 536.571289062 312 536.571289062 312 498.571289062 323 c 128,-1,18
 460.571289062 334 460.571289062 334 351.571289062 334 c 0,19,20
 277.571289062 334 277.571289062 334 250.571289062 331.5 c 128,-1,21
 223.571289062 329 223.571289062 329 199.571289062 321 c 0,22,23
 163.571289062 308 163.571289062 308 150.571289062 292 c 0,24,25
 112.571289062 250 112.571289062 250 125.071289062 154.5 c 128,-1,26
 137.571289062 59 137.571289062 59 186.571289062 14 c 0,27,28
 210.571289062 -9 210.571289062 -9 228.571289062 -16.5 c 128,-1,29
 246.571289062 -24 246.571289062 -24 280.071289062 -27 c 128,-1,30
 313.571289062 -30 313.571289062 -30 398.571289062 -32 c 0,31,32
 546.571289062 -36 546.571289062 -36 556.571289062 -45 c 0,33,34
 585.571289062 -68 585.571289062 -68 539.571289062 -74 c 0,35,36
 496.571289062 -80 496.571289062 -80 360.571289062 -76 c 0,37,38
 248.571289062 -72 248.571289062 -72 194.571289062 -72 c 0,39,40
 166.571289062 -72 166.571289062 -72 120.571289062 -65.5 c 128,-1,41
 74.5712890625 -59 74.5712890625 -59 70.5712890625 -55 c 0,42,43
 62.5712890625 -48 62.5712890625 -48 54.5712890625 189.5 c 128,-1,44
 46.5712890625 427 46.5712890625 427 52.5712890625 466 c 0,45,46
 55.5712890625 488 55.5712890625 488 61.5712890625 494 c 128,-1,47
 67.5712890625 500 67.5712890625 500 79.5712890625 492.5 c 128,-1,48
 91.5712890625 485 91.5712890625 485 112.571289062 462 c 0,49,50
 147.571289062 423 147.571289062 423 174.571289062 415 c 0,51,52
 202.571289062 407 202.571289062 407 326.571289062 407 c 0,53,54
 409.571289062 407 409.571289062 407 438.071289062 409.5 c 128,-1,55
 466.571289062 412 466.571289062 412 489.571289062 420 c 0,56,57
 524.571289062 433 524.571289062 433 539.071289062 449.5 c 128,-1,58
 553.571289062 466 553.571289062 466 561.571289062 500 c 0,59,60
 572.571289062 546 572.571289062 546 562.571289062 597 c 128,-1,61
 552.571289062 648 552.571289062 648 525.571289062 678 c 0,62,63
 503.571289062 704 503.571289062 704 481.071289062 713.5 c 128,-1,64
 458.571289062 723 458.571289062 723 417.071289062 726.5 c 128,-1,65
 375.571289062 730 375.571289062 730 268.571289062 733 c 0,66,67
 92.5712890625 736 92.5712890625 736 74.5712890625 745 c 0,68,69
 26.5712890625 769 26.5712890625 769 105.571289062 777 c 0,70,71
 134.571289062 779 134.571289062 779 181.571289062 780 c 0,72,73
 246.571289062 781 246.571289062 781 265.571289062 786 c 0,0,1
EndSplineSet
EndChar

StartChar: F
Encoding: 70 70 15
Width: 699
Flags: W
LayerCount: 2
Fore
SplineSet
586 813 m 0,0,1
 586 818 586 818 593 819 c 128,-1,2
 600 820 600 820 609.5 817 c 128,-1,3
 619 814 619 814 626 808 c 0,4,5
 641 795 641 795 638 787 c 128,-1,6
 635 779 635 779 611 769 c 0,7,8
 577 755 577 755 524 707 c 0,9,10
 510 694 510 694 464 642 c 128,-1,11
 418 590 418 590 401 568 c 0,12,13
 379 539 379 539 380 527 c 0,14,15
 380 517 380 517 396 515 c 128,-1,16
 412 513 412 513 496 513 c 0,17,18
 609 513 609 513 630 509 c 2,19,-1
 649 506 l 1,20,-1
 649 355 l 2,21,22
 649 259 649 259 647 231.5 c 128,-1,23
 645 204 645 204 639 204 c 0,24,25
 629 204 629 204 608 265 c 0,26,27
 594 311 594 311 581.5 331.5 c 128,-1,28
 569 352 569 352 550 362 c 0,29,30
 521 377 521 377 378 384 c 0,31,32
 311 388 311 388 286.5 382 c 128,-1,33
 262 376 262 376 257 355 c 0,34,35
 254 342 254 342 237 313 c 128,-1,36
 220 284 220 284 217 274 c 0,37,38
 213 259 213 259 191 211 c 0,39,40
 140 99 140 99 107 -70 c 0,41,42
 103 -95 103 -95 98.5 -103.5 c 128,-1,43
 94 -112 94 -112 87 -112 c 0,44,45
 76 -112 76 -112 72 -91 c 0,46,47
 54 4 54 4 125 221 c 0,48,49
 160 329 160 329 163 342 c 0,50,51
 180 400 180 400 237 499.5 c 128,-1,52
 294 599 294 599 353 676 c 0,53,54
 387 718 387 718 387 733 c 0,55,56
 387 741 387 741 379 743 c 128,-1,57
 371 745 371 745 336 745 c 0,58,59
 254 745 254 745 177 716 c 0,60,61
 118 694 118 694 91 613 c 0,62,63
 82 587 82 587 72.5 577.5 c 128,-1,64
 63 568 63 568 53 578 c 0,65,66
 47 585 47 585 53 683 c 0,67,68
 57 752 57 752 60.5 768 c 128,-1,69
 64 784 64 784 74 794 c 0,70,71
 84 802 84 802 123.5 804 c 128,-1,72
 163 806 163 806 338 806 c 0,73,74
 586 806 586 806 586 813 c 0,0,1
EndSplineSet
EndChar

StartChar: G
Encoding: 71 71 16
Width: 644
Flags: W
LayerCount: 2
Fore
SplineSet
82.125 786 m 0,0,1
 98.125 791 98.125 791 311.125 791.5 c 128,-1,2
 524.125 792 524.125 792 540.125 786 c 0,3,4
 564.125 780 564.125 780 564.625 768.5 c 128,-1,5
 565.125 757 565.125 757 544.125 738 c 0,6,7
 522.125 719 522.125 719 522.625 705.5 c 128,-1,8
 523.125 692 523.125 692 547.125 664 c 0,9,10
 561.125 647 561.125 647 577.625 592.5 c 128,-1,11
 594.125 538 594.125 538 594.125 509 c 0,12,13
 594.125 448 594.125 448 540.625 326.5 c 128,-1,14
 487.125 205 487.125 205 421.125 117 c 0,15,16
 346.125 17 346.125 17 272.125 -49 c 128,-1,17
 198.125 -115 198.125 -115 163.125 -111 c 0,18,19
 162.125 -111 162.125 -111 159.125 -110 c 0,20,21
 151.125 -110 151.125 -110 151.125 -108 c 0,22,23
 151.125 -103 151.125 -103 224.125 -32 c 0,24,25
 237.125 -19 237.125 -19 246.125 -10 c 0,26,27
 367.125 107 367.125 107 422.625 250.5 c 128,-1,28
 478.125 394 478.125 394 452.125 521 c 0,29,30
 439.125 584 439.125 584 426.125 614 c 128,-1,31
 413.125 644 413.125 644 386.125 672 c 2,32,-1
 352.125 707 l 1,33,-1
 275.125 707 l 2,34,35
 196.125 707 196.125 707 174.125 698 c 0,36,37
 155.125 692 155.125 692 113.125 655 c 0,38,39
 86.125 630 86.125 630 78.625 626.5 c 128,-1,40
 71.125 623 71.125 623 64.125 629 c 0,41,42
 53.125 640 53.125 640 50.125 694 c 0,43,44
 49.125 741 49.125 741 56.125 761 c 128,-1,45
 63.125 781 63.125 781 82.125 786 c 0,0,1
EndSplineSet
EndChar

StartChar: H
Encoding: 72 72 17
Width: 574
Flags: W
LayerCount: 2
Fore
SplineSet
62 806 m 0,0,1
 64 815 64 815 96.5 817 c 128,-1,2
 129 819 129 819 295 819 c 2,3,-1
 524 819 l 1,4,-1
 520 780 l 2,5,6
 517 752 517 752 499.5 708 c 128,-1,7
 482 664 482 664 466 643 c 0,8,9
 456 630 456 630 444 637 c 0,10,11
 438 641 438 641 436 652.5 c 128,-1,12
 434 664 434 664 435 693 c 0,13,14
 436 741 436 741 426 750.5 c 128,-1,15
 416 760 416 760 362 758 c 2,16,-1
 306 756 l 1,17,-1
 290 724 l 2,18,19
 276 694 276 694 276 676 c 128,-1,20
 276 658 276 658 292 622 c 0,21,22
 306 590 306 590 346.5 547 c 128,-1,23
 387 504 387 504 407 498 c 0,24,25
 421 493 421 493 429 474 c 0,26,27
 434 462 434 462 431.5 452.5 c 128,-1,28
 429 443 429 443 415 420 c 0,29,30
 386 373 386 373 349 279 c 0,31,32
 332 236 332 236 296 167.5 c 128,-1,33
 260 99 260 99 235 61 c 0,34,35
 172 -34 172 -34 129 -45 c 0,36,37
 110 -50 110 -50 80 -47.5 c 128,-1,38
 50 -45 50 -45 50 -39 c 0,39,40
 50 -34 50 -34 70 -16.5 c 128,-1,41
 90 1 90 1 109 11 c 0,42,43
 136 27 136 27 181.5 108.5 c 128,-1,44
 227 190 227 190 247 257 c 0,45,46
 265 317 265 317 272 403 c 128,-1,47
 279 489 279 489 269 536 c 0,48,49
 260 580 260 580 241 620 c 0,50,51
 222 661 222 661 178 708 c 128,-1,52
 134 755 134 755 103 768 c 0,53,54
 73 781 73 781 66 788 c 128,-1,55
 59 795 59 795 62 806 c 0,0,1
EndSplineSet
EndChar

StartChar: I
Encoding: 73 73 18
Width: 630
Flags: W
LayerCount: 2
Fore
SplineSet
68.76171875 793 m 128,-1,1
 79.76171875 802 79.76171875 802 115.76171875 804 c 128,-1,2
 151.76171875 806 151.76171875 806 317.76171875 806 c 0,3,4
 469.76171875 806 469.76171875 806 513.26171875 804 c 128,-1,5
 556.76171875 802 556.76171875 802 566.76171875 796 c 0,6,7
 580.76171875 786 580.76171875 786 580.76171875 778 c 256,8,9
 580.76171875 771 580.76171875 771 543.76171875 733 c 0,10,11
 504.76171875 695 504.76171875 695 485.76171875 674 c 0,12,13
 467.76171875 654 467.76171875 654 439.76171875 645 c 0,14,15
 412.76171875 638 412.76171875 638 409.76171875 635.5 c 128,-1,16
 406.76171875 633 406.76171875 633 415.76171875 623 c 0,17,18
 424.76171875 612 424.76171875 612 423.26171875 575.5 c 128,-1,19
 421.76171875 539 421.76171875 539 408.76171875 513 c 0,20,21
 397.76171875 488 397.76171875 488 381.76171875 420.5 c 128,-1,22
 365.76171875 353 365.76171875 353 360.76171875 338 c 0,23,24
 348.76171875 296 348.76171875 296 348.76171875 257 c 0,25,26
 348.76171875 225 348.76171875 225 340.76171875 189 c 128,-1,27
 332.76171875 153 332.76171875 153 320.76171875 129.5 c 128,-1,28
 308.76171875 106 308.76171875 106 299.76171875 110 c 0,29,30
 284.76171875 115 284.76171875 115 279.76171875 161.5 c 128,-1,31
 274.76171875 208 274.76171875 208 276.76171875 340 c 0,32,33
 280.76171875 542 280.76171875 542 283.76171875 591 c 0,34,35
 287.76171875 656 287.76171875 656 281.26171875 669 c 128,-1,36
 274.76171875 682 274.76171875 682 240.76171875 678 c 0,37,38
 180.76171875 670 180.76171875 670 108.76171875 609 c 0,39,40
 72.76171875 579 72.76171875 579 63.76171875 580 c 0,41,42
 46.76171875 580 46.76171875 580 50.76171875 710 c 0,43,44
 51.76171875 759 51.76171875 759 54.76171875 771.5 c 128,-1,0
 57.76171875 784 57.76171875 784 68.76171875 793 c 128,-1,1
EndSplineSet
EndChar

StartChar: J
Encoding: 74 74 19
Width: 625
Flags: W
LayerCount: 2
Fore
SplineSet
159 773 m 0,0,1
 177 777 177 777 334 777.5 c 128,-1,2
 491 778 491 778 511 773 c 0,3,4
 556 764 556 764 526 724 c 0,5,6
 508 700 508 700 508 687 c 0,7,8
 508 675 508 675 524.5 617.5 c 128,-1,9
 541 560 541 560 548 547 c 0,10,11
 556 532 556 532 562 481 c 0,12,13
 569 432 569 432 573.5 181.5 c 128,-1,14
 578 -69 578 -69 572 -83 c 0,15,16
 566 -98 566 -98 551.5 -101.5 c 128,-1,17
 537 -105 537 -105 508 -97 c 0,18,19
 476 -89 476 -89 449 -97 c 0,20,21
 431 -103 431 -103 423 -102.5 c 128,-1,22
 415 -102 415 -102 404 -94 c 2,23,-1
 386 -83 l 1,24,-1
 410 -62 l 2,25,26
 442 -33 442 -33 459.5 4 c 128,-1,27
 477 41 477 41 493 113 c 0,28,29
 502 159 502 159 502 284.5 c 128,-1,30
 502 410 502 410 493 454 c 0,31,32
 463 585 463 585 384 642 c 0,33,34
 360 659 360 659 347.5 663 c 128,-1,35
 335 667 335 667 286 667 c 2,36,-1
 218 667 l 1,37,-1
 178 625 l 2,38,39
 144 590 144 590 128 555 c 128,-1,40
 112 520 112 520 102 464 c 0,41,42
 80 339 80 339 65 349 c 0,43,44
 60 353 60 353 55 371 c 0,45,46
 50 397 50 397 50 533.5 c 128,-1,47
 50 670 50 670 56 684 c 0,48,49
 66 711 66 711 98.5 738.5 c 128,-1,50
 131 766 131 766 159 773 c 0,0,1
EndSplineSet
EndChar

StartChar: K
Encoding: 75 75 20
Width: 659
Flags: W
LayerCount: 2
Fore
SplineSet
366.780273438 779 m 0,0,1
 388.780273438 779 388.780273438 779 424.780273438 780 c 0,2,3
 553.780273438 782 553.780273438 782 575.780273438 781.5 c 128,-1,4
 597.780273438 781 597.780273438 781 600.780273438 775 c 0,5,6
 601.780273438 773 601.780273438 773 602.780273438 772 c 0,7,8
 608.780273438 762 608.780273438 762 588.780273438 741 c 0,9,10
 569.780273438 722 569.780273438 722 564.280273438 702 c 128,-1,11
 558.780273438 682 558.780273438 682 566.780273438 653 c 0,12,13
 569.780273438 643 569.780273438 643 576.780273438 615.5 c 128,-1,14
 583.780273438 588 583.780273438 588 589.280273438 566.5 c 128,-1,15
 594.780273438 545 594.780273438 545 600.780273438 532 c 0,16,17
 609.780273438 517 609.780273438 517 609.780273438 397 c 0,18,19
 609.780273438 307 609.780273438 307 607.280273438 286.5 c 128,-1,20
 604.780273438 266 604.780273438 266 589.780273438 234 c 0,21,22
 571.780273438 193 571.780273438 193 554.280273438 167 c 128,-1,23
 536.780273438 141 536.780273438 141 528.780273438 141 c 128,-1,24
 520.780273438 141 520.780273438 141 520.780273438 154 c 128,-1,25
 520.780273438 167 520.780273438 167 527.780273438 185 c 0,26,27
 553.780273438 250 553.780273438 250 553.780273438 369 c 0,28,29
 553.780273438 424 553.780273438 424 550.780273438 444.5 c 128,-1,30
 547.780273438 465 547.780273438 465 531.780273438 502 c 0,31,32
 492.780273438 601 492.780273438 601 451.780273438 646 c 0,33,34
 436.780273438 662 436.780273438 662 422.780273438 684 c 0,35,36
 413.780273438 696 413.780273438 696 400.780273438 703 c 128,-1,37
 387.780273438 710 387.780273438 710 355.780273438 719 c 0,38,39
 300.780273438 733 300.780273438 733 259.780273438 733 c 0,40,41
 228.780273438 733 228.780273438 733 221.780273438 730.5 c 128,-1,42
 214.780273438 728 214.780273438 728 214.780273438 719 c 0,43,44
 214.780273438 706 214.780273438 706 234.780273438 688 c 0,45,46
 253.780273438 673 253.780273438 673 254.780273438 666 c 256,47,48
 254.780273438 659 254.780273438 659 224.780273438 646 c 0,49,50
 197.780273438 634 197.780273438 634 183.780273438 610 c 128,-1,51
 169.780273438 586 169.780273438 586 150.780273438 522 c 0,52,53
 134.780273438 467 134.780273438 467 134.280273438 399.5 c 128,-1,54
 133.780273438 332 133.780273438 332 148.780273438 275 c 0,55,56
 177.780273438 170 177.780273438 170 193.780273438 127.5 c 128,-1,57
 209.780273438 85 209.780273438 85 229.780273438 62 c 0,58,59
 251.780273438 38 251.780273438 38 274.780273438 53 c 128,-1,60
 297.780273438 68 297.780273438 68 308.780273438 111 c 0,61,62
 325.780273438 189 325.780273438 189 339.780273438 193 c 0,63,64
 346.780273438 195 346.780273438 195 353.280273438 180.5 c 128,-1,65
 359.780273438 166 359.780273438 166 365.280273438 139.5 c 128,-1,66
 370.780273438 113 370.780273438 113 372.780273438 81 c 0,67,68
 374.780273438 29 374.780273438 29 364.780273438 -21.5 c 128,-1,69
 354.780273438 -72 354.780273438 -72 340.780273438 -81 c 0,70,71
 310.780273438 -99 310.780273438 -99 244.780273438 -35.5 c 128,-1,72
 178.780273438 28 178.780273438 28 131.780273438 121 c 0,73,74
 79.7802734375 223 79.7802734375 223 63.2802734375 291.5 c 128,-1,75
 46.7802734375 360 46.7802734375 360 50.7802734375 457 c 0,76,77
 53.7802734375 542 53.7802734375 542 59.7802734375 582 c 0,78,79
 68.7802734375 633 68.7802734375 633 98.2802734375 697.5 c 128,-1,80
 127.780273438 762 127.780273438 762 145.780273438 770 c 0,81,82
 156.780273438 775 156.780273438 775 366.780273438 779 c 0,0,1
EndSplineSet
EndChar

StartChar: L
Encoding: 76 76 21
Width: 672
Flags: W
LayerCount: 2
Fore
SplineSet
72.8271484375 787 m 0,0,1
 89.8271484375 791 89.8271484375 791 337.327148438 792 c 128,-1,2
 584.827148438 793 584.827148438 793 602.827148438 788 c 0,3,4
 616.827148438 785 616.827148438 785 619.827148438 780.5 c 128,-1,5
 622.827148438 776 622.827148438 776 622.827148438 756 c 0,6,7
 622.827148438 731 622.827148438 731 602.327148438 686 c 128,-1,8
 581.827148438 641 581.827148438 641 547.827148438 592 c 0,9,10
 528.827148438 562 528.827148438 562 514.827148438 551 c 128,-1,11
 500.827148438 540 500.827148438 540 483.827148438 540 c 0,12,13
 455.827148438 540 455.827148438 540 488.827148438 601 c 0,14,15
 502.827148438 627 502.827148438 627 502.827148438 631 c 0,16,17
 502.827148438 638 502.827148438 638 476.827148438 678 c 0,18,19
 457.827148438 708 457.827148438 708 450.327148438 714 c 128,-1,20
 442.827148438 720 442.827148438 720 422.827148438 720 c 0,21,22
 395.827148438 720 395.827148438 720 365.827148438 727 c 0,23,24
 335.827148438 735 335.827148438 735 296.827148438 726 c 0,25,26
 270.827148438 721 270.827148438 721 263.827148438 717 c 128,-1,27
 256.827148438 713 256.827148438 713 256.827148438 703 c 0,28,29
 256.827148438 689 256.827148438 689 277.827148438 669 c 0,30,31
 328.827148438 621 328.827148438 621 355.827148438 542 c 0,32,33
 367.827148438 504 367.827148438 504 370.827148438 466 c 128,-1,34
 373.827148438 428 373.827148438 428 375.827148438 274 c 0,35,36
 379.827148438 58 379.827148438 58 387.827148438 45 c 0,37,38
 398.827148438 23 398.827148438 23 427.827148438 0.5 c 128,-1,39
 456.827148438 -22 456.827148438 -22 491.827148438 -39 c 0,40,41
 563.827148438 -74 563.827148438 -74 529.827148438 -84 c 0,42,43
 522.827148438 -87 522.827148438 -87 507.827148438 -88 c 0,44,45
 474.827148438 -93 474.827148438 -93 440.827148438 -85 c 0,46,47
 408.827148438 -78 408.827148438 -78 370.827148438 -82 c 256,48,49
 332.827148438 -86 332.827148438 -86 324.827148438 -81 c 0,50,51
 309.827148438 -70 309.827148438 -70 306.827148438 10 c 0,52,53
 305.827148438 36 305.827148438 36 301.827148438 170 c 0,54,55
 297.827148438 404 297.827148438 404 290.827148438 437 c 0,56,57
 282.827148438 471 282.827148438 471 252.827148438 534 c 0,58,59
 232.827148438 575 232.827148438 575 216.327148438 596 c 128,-1,60
 199.827148438 617 199.827148438 617 156.827148438 659 c 0,61,62
 78.8271484375 735 78.8271484375 735 67.8271484375 744 c 0,63,64
 29.8271484375 779 29.8271484375 779 72.8271484375 787 c 0,0,1
EndSplineSet
EndChar

StartChar: M
Encoding: 77 77 22
Width: 647
Flags: W
LayerCount: 2
Fore
SplineSet
55.142578125 781 m 2,0,-1
 61.142578125 819 l 1,1,-1
 153.142578125 819 l 2,2,3
 245.142578125 819 245.142578125 819 245.142578125 814 c 0,4,5
 245.142578125 808 245.142578125 808 234.142578125 794 c 0,6,7
 224.142578125 779 224.142578125 779 227.142578125 727 c 0,8,9
 228.142578125 695 228.142578125 695 233.142578125 675 c 128,-1,10
 238.142578125 655 238.142578125 655 254.142578125 622 c 0,11,12
 274.142578125 579 274.142578125 579 298.142578125 551 c 128,-1,13
 322.142578125 523 322.142578125 523 334.142578125 528 c 256,14,15
 346.142578125 533 346.142578125 533 369.642578125 568 c 128,-1,16
 393.142578125 603 393.142578125 603 405.142578125 633 c 0,17,18
 414.142578125 658 414.142578125 658 416.142578125 677 c 128,-1,19
 418.142578125 696 418.142578125 696 416.142578125 744 c 2,20,-1
 413.142578125 819 l 1,21,-1
 597.142578125 819 l 1,22,-1
 597.142578125 242 l 1,23,-1
 575.142578125 153 l 2,24,25
 550.142578125 56 550.142578125 56 518.142578125 -1 c 128,-1,26
 486.142578125 -58 486.142578125 -58 454.142578125 -58 c 0,27,28
 438.142578125 -58 438.142578125 -58 437.142578125 -54 c 256,29,30
 437.142578125 -50 437.142578125 -50 465.142578125 3 c 0,31,32
 496.142578125 63 496.142578125 63 503.142578125 116.5 c 128,-1,33
 510.142578125 170 510.142578125 170 510.142578125 334 c 0,34,35
 510.142578125 484 510.142578125 484 504.142578125 541.5 c 128,-1,36
 498.142578125 599 498.142578125 599 482.142578125 609 c 0,37,38
 472.142578125 615 472.142578125 615 454.642578125 597.5 c 128,-1,39
 437.142578125 580 437.142578125 580 406.142578125 527 c 0,40,41
 389.142578125 497 389.142578125 497 378.642578125 487.5 c 128,-1,42
 368.142578125 478 368.142578125 478 352.142578125 473 c 0,43,44
 328.142578125 467 328.142578125 467 303.642578125 473.5 c 128,-1,45
 279.142578125 480 279.142578125 480 271.142578125 496 c 256,46,47
 263.142578125 511 263.142578125 511 215.642578125 558.5 c 128,-1,48
 168.142578125 606 168.142578125 606 162.142578125 606 c 0,49,50
 154.142578125 606 154.142578125 606 137.142578125 586.5 c 128,-1,51
 120.142578125 567 120.142578125 567 115.142578125 553 c 0,52,53
 111.142578125 538 111.142578125 538 106.142578125 438 c 0,54,55
 101.142578125 341 101.142578125 341 95.142578125 336 c 0,56,57
 91.142578125 330 91.142578125 330 78.142578125 345 c 0,58,59
 65.142578125 358 65.142578125 358 57.142578125 428 c 0,60,61
 51.142578125 488 51.142578125 488 50.142578125 613.5 c 128,-1,62
 49.142578125 739 49.142578125 739 55.142578125 781 c 2,0,-1
EndSplineSet
EndChar

StartChar: N
Encoding: 78 78 23
Width: 569
Flags: W
LayerCount: 2
Fore
SplineSet
95 783 m 0,0,1
 121 789 121 789 190.5 791.5 c 128,-1,2
 260 794 260 794 292 787 c 0,3,4
 318 784 318 784 320.5 774 c 128,-1,5
 323 764 323 764 301 744 c 0,6,7
 281 725 281 725 274.5 706 c 128,-1,8
 268 687 268 687 271 653 c 0,9,10
 276 601 276 601 318.5 534 c 128,-1,11
 361 467 361 467 388 467 c 0,12,13
 410 467 410 467 436.5 512 c 128,-1,14
 463 557 463 557 463 593 c 0,15,16
 463 613 463 613 474 646.5 c 128,-1,17
 485 680 485 680 493 680 c 0,18,19
 504 680 504 680 511.5 652 c 128,-1,20
 519 624 519 624 519 583 c 0,21,22
 518 533 518 533 500 473 c 128,-1,23
 482 413 482 413 455 364 c 0,24,25
 433 326 433 326 419 312.5 c 128,-1,26
 405 299 405 299 389 304 c 0,27,28
 377 308 377 308 346.5 348.5 c 128,-1,29
 316 389 316 389 316 401 c 0,30,31
 316 406 316 406 313 410 c 128,-1,32
 310 414 310 414 306 414 c 0,33,34
 297 414 297 414 297 380 c 0,35,36
 297 348 297 348 276.5 266 c 128,-1,37
 256 184 256 184 243 162 c 0,38,39
 231 139 231 139 230 132 c 0,40,41
 230 119 230 119 195.5 56 c 128,-1,42
 161 -7 161 -7 141 -28 c 0,43,44
 102 -68 102 -68 97 -51 c 0,45,46
 97 -44 97 -44 126 20 c 0,47,48
 161 97 161 97 170.5 146.5 c 128,-1,49
 180 196 180 196 182 305 c 0,50,51
 183 384 183 384 181.5 412.5 c 128,-1,52
 180 441 180 441 174 453 c 0,53,54
 165 470 165 470 160 501 c 0,55,56
 155 534 155 534 98 642 c 0,57,58
 98 643 98 643 96 645 c 0,59,60
 50 736 50 736 50 753.5 c 128,-1,61
 50 771 50 771 93 782 c 0,62,63
 94 783 94 783 95 783 c 0,0,1
EndSplineSet
EndChar

StartChar: O
Encoding: 79 79 24
Width: 618
Flags: W
LayerCount: 2
Fore
SplineSet
50 815 m 256,0,1
 50 819 50 819 299.5 819 c 128,-1,2
 549 819 549 819 549 814.5 c 128,-1,3
 549 810 549 810 533 788 c 0,4,5
 519 770 519 770 516.5 745.5 c 128,-1,6
 514 721 514 721 526 698 c 0,7,8
 537 676 537 676 553 615 c 0,9,10
 563 573 563 573 565.5 541 c 128,-1,11
 568 509 568 509 568 428 c 0,12,13
 568 349 568 349 565 310.5 c 128,-1,14
 562 272 562 272 552 214 c 0,15,16
 538 142 538 142 522 104 c 128,-1,17
 506 66 506 66 474 24 c 0,18,19
 457 0 457 0 430.5 -20.5 c 128,-1,20
 404 -41 404 -41 398 -36 c 0,21,22
 395 -33 395 -33 415 6 c 0,23,24
 445 61 445 61 457 88 c 2,25,-1
 479 131 l 1,26,-1
 478 248 l 2,27,28
 478 374 478 374 470 445.5 c 128,-1,29
 462 517 462 517 440 585 c 0,30,31
 400 703 400 703 345 761 c 0,32,33
 328 778 328 778 318 782 c 128,-1,34
 308 786 308 786 282 786 c 0,35,36
 252 786 252 786 246.5 781 c 128,-1,37
 241 776 241 776 249 756 c 0,38,39
 253 746 253 746 246 727 c 128,-1,40
 239 708 239 708 223 689 c 0,41,42
 212 675 212 675 198 640 c 0,43,44
 164 554 164 554 146 467.5 c 128,-1,45
 128 381 128 381 136 345 c 0,46,47
 143 312 143 312 143 284 c 0,48,49
 143 265 143 265 161 209 c 128,-1,50
 179 153 179 153 191 137 c 2,51,52
 219 89 l 0,53,54
 253 28 253 28 236 28 c 0,55,56
 203 28 203 28 155 107 c 128,-1,57
 107 186 107 186 76 291 c 0,58,59
 63 338 63 338 59.5 366 c 128,-1,60
 56 394 56 394 56 483 c 0,61,62
 56 561 56 561 59.5 595 c 128,-1,63
 63 629 63 629 70 659 c 0,64,65
 83 709 83 709 83 748 c 0,66,67
 83 772 83 772 80.5 781 c 128,-1,68
 78 790 78 790 67 798 c 0,69,70
 50 811 50 811 50 815 c 256,0,1
288 534 m 0,71,72
 318 558 318 558 341.5 537.5 c 128,-1,73
 365 517 365 517 365 470 c 0,74,75
 365 400 365 400 316 395 c 0,76,77
 275 391 275 391 262 442 c 0,78,79
 255 469 255 469 262.5 494.5 c 128,-1,80
 270 520 270 520 288 534 c 0,71,72
EndSplineSet
EndChar

StartChar: P
Encoding: 80 80 25
Width: 672
Flags: W
LayerCount: 2
Fore
SplineSet
50 806 m 0,0,1
 50 816 50 816 86.5 817.5 c 128,-1,2
 123 819 123 819 336 819 c 2,3,-1
 622 819 l 1,4,-1
 618 798 l 2,5,6
 615 779 615 779 576 699 c 0,7,8
 538 623 538 623 516.5 567 c 128,-1,9
 495 511 495 511 466 415 c 0,10,11
 455 378 455 378 452.5 349.5 c 128,-1,12
 450 321 450 321 450 232 c 0,13,14
 450 106 450 106 462 44 c 0,15,16
 482 -57 482 -57 459 -58 c 0,17,18
 452 -58 452 -58 441 -46 c 0,19,20
 426 -30 426 -30 403.5 21 c 128,-1,21
 381 72 381 72 374 108 c 0,22,23
 361 165 361 165 355 185 c 0,24,25
 348 219 348 219 350 278 c 128,-1,26
 352 337 352 337 363 386 c 0,27,28
 373 434 373 434 371 453.5 c 128,-1,29
 369 473 369 473 353 473 c 0,30,31
 342 473 342 473 303.5 458.5 c 128,-1,32
 265 444 265 444 244 432 c 0,33,34
 226 422 226 422 220 421 c 128,-1,35
 214 420 214 420 206 428 c 0,36,37
 196 437 196 437 190 481 c 0,38,39
 182 558 182 558 148.5 640 c 128,-1,40
 115 722 115 722 77 763 c 0,41,42
 50 793 50 793 50 806 c 0,0,1
461 758 m 0,43,44
 456 769 456 769 437 771 c 128,-1,45
 418 773 418 773 311 773 c 0,46,47
 188 773 188 773 174 765 c 0,48,49
 162 758 162 758 182 730 c 0,50,51
 185 726 185 726 197 712 c 0,52,53
 224 677 224 677 230 653 c 0,54,55
 240 621 240 621 257 589 c 128,-1,56
 274 557 274 557 288 545 c 0,57,58
 305 529 305 529 344 519 c 0,59,60
 378 512 378 512 389 517.5 c 128,-1,61
 400 523 400 523 406 548 c 0,62,63
 409 567 409 567 425 609 c 0,64,65
 447 661 447 661 456.5 703 c 128,-1,66
 466 745 466 745 461 758 c 0,43,44
EndSplineSet
EndChar

StartChar: Q
Encoding: 81 81 26
Width: 655
Flags: W
LayerCount: 2
Fore
SplineSet
95.36328125 769 m 0,0,1
 103.36328125 779 103.36328125 779 135.86328125 780 c 128,-1,2
 168.36328125 781 168.36328125 781 341.36328125 778 c 0,3,4
 575.36328125 775 575.36328125 775 578.36328125 774 c 0,5,6
 589.36328125 766 589.36328125 766 550.36328125 687 c 0,7,8
 461.36328125 513 461.36328125 513 415.36328125 367 c 0,9,10
 395.36328125 302 395.36328125 302 391.86328125 282 c 128,-1,11
 388.36328125 262 388.36328125 262 395.36328125 256 c 0,12,13
 404.36328125 248 404.36328125 248 489.36328125 247 c 0,14,15
 552.36328125 245 552.36328125 245 565.36328125 242.5 c 128,-1,16
 578.36328125 240 578.36328125 240 590.36328125 224 c 0,17,18
 600.36328125 213 600.36328125 213 603.36328125 203.5 c 128,-1,19
 606.36328125 194 606.36328125 194 605.36328125 172 c 0,20,21
 604.36328125 139 604.36328125 139 591.36328125 132 c 0,22,23
 583.36328125 127 583.36328125 127 577.36328125 130.5 c 128,-1,24
 571.36328125 134 571.36328125 134 558.36328125 150 c 2,25,-1
 536.36328125 175 l 1,26,-1
 467.36328125 173 l 2,27,28
 425.36328125 172 425.36328125 172 410.86328125 169.5 c 128,-1,29
 396.36328125 167 396.36328125 167 392.36328125 160 c 0,30,31
 384.36328125 148 384.36328125 148 393.86328125 101 c 128,-1,32
 403.36328125 54 403.36328125 54 421.36328125 12 c 0,33,34
 441.36328125 -33 441.36328125 -33 445.36328125 -58 c 2,35,-1
 448.36328125 -84 l 1,36,-1
 418.36328125 -88 l 2,37,38
 391.36328125 -93 391.36328125 -93 319.36328125 -90 c 0,39,40
 289.36328125 -90 289.36328125 -90 276.86328125 -89.5 c 128,-1,41
 264.36328125 -89 264.36328125 -89 250.86328125 -84.5 c 128,-1,42
 237.36328125 -80 237.36328125 -80 234.86328125 -77 c 128,-1,43
 232.36328125 -74 232.36328125 -74 232.36328125 -60.5 c 128,-1,44
 232.36328125 -47 232.36328125 -47 235.86328125 -35.5 c 128,-1,45
 239.36328125 -24 239.36328125 -24 247.36328125 3 c 0,46,47
 293.36328125 147 293.36328125 147 280.36328125 166 c 0,48,49
 272.36328125 174 272.36328125 174 204.36328125 174 c 2,50,-1
 136.36328125 174 l 1,51,-1
 112.36328125 147 l 2,52,53
 87.36328125 120 87.36328125 120 87.36328125 111 c 0,54,55
 87.36328125 102 87.36328125 102 78.36328125 101.5 c 128,-1,56
 69.36328125 101 69.36328125 101 62.36328125 111 c 0,57,58
 52.36328125 123 52.36328125 123 50.36328125 155.5 c 128,-1,59
 48.36328125 188 48.36328125 188 57.36328125 209 c 0,60,61
 66.36328125 233 66.36328125 233 92.86328125 240.5 c 128,-1,62
 119.36328125 248 119.36328125 248 195.36328125 248 c 0,63,64
 272.36328125 248 272.36328125 248 281.36328125 257 c 0,65,66
 293.36328125 272 293.36328125 272 275.36328125 387 c 0,67,68
 265.36328125 447 265.36328125 447 212.86328125 551.5 c 128,-1,69
 160.36328125 656 160.36328125 656 106.36328125 725 c 0,70,71
 88.36328125 748 88.36328125 748 86.86328125 753.5 c 128,-1,72
 85.36328125 759 85.36328125 759 95.36328125 769 c 0,0,1
487.36328125 706 m 0,73,74
 487.36328125 717 487.36328125 717 480.86328125 718 c 128,-1,75
 474.36328125 719 474.36328125 719 453.36328125 713 c 0,76,77
 437.36328125 708 437.36328125 708 335.36328125 707 c 256,78,79
 234.36328125 706 234.36328125 706 234.36328125 700 c 0,80,81
 234.36328125 694 234.36328125 694 257.36328125 642 c 0,82,83
 290.36328125 573 290.36328125 573 299.36328125 550 c 128,-1,84
 308.36328125 527 308.36328125 527 314.36328125 500 c 0,85,86
 343.36328125 372 343.36328125 372 377.36328125 473 c 0,87,88
 388.36328125 508 388.36328125 508 423.36328125 579.5 c 128,-1,89
 458.36328125 651 458.36328125 651 474.36328125 674 c 0,90,91
 487.36328125 691 487.36328125 691 487.36328125 706 c 0,73,74
EndSplineSet
EndChar

StartChar: R
Encoding: 82 82 27
Width: 664
Flags: W
LayerCount: 2
Fore
SplineSet
233 746 m 0,0,1
 255 752 255 752 352 750 c 0,2,3
 419 749 419 749 443 745.5 c 128,-1,4
 467 742 467 742 498 731 c 0,5,6
 544 714 544 714 579 679.5 c 128,-1,7
 614 645 614 645 614 617 c 0,8,9
 614 573 614 573 553 563 c 0,10,11
 514 556 514 556 459.5 539 c 128,-1,12
 405 522 405 522 379 508 c 0,13,14
 341 488 341 488 304.5 451 c 128,-1,15
 268 414 268 414 261 387 c 0,16,17
 248 342 248 342 258.5 164.5 c 128,-1,18
 269 -13 269 -13 288 -60 c 0,19,20
 297 -83 297 -83 295.5 -97.5 c 128,-1,21
 294 -112 294 -112 283 -112 c 0,22,23
 269 -112 269 -112 245 -70 c 128,-1,24
 221 -28 221 -28 206 25 c 0,25,26
 187 88 187 88 178 108 c 0,27,28
 170 128 170 128 163 164 c 0,29,30
 159 189 159 189 148 241 c 0,31,32
 130 318 130 318 127 348 c 128,-1,33
 124 378 124 378 133 407 c 0,34,35
 143 444 143 444 166 464 c 0,36,37
 181 478 181 478 266.5 522.5 c 128,-1,38
 352 567 352 567 382 577 c 0,39,40
 415 587 415 587 415 609 c 0,41,42
 415 617 415 617 406.5 623 c 128,-1,43
 398 629 398 629 377 637 c 0,44,45
 309 663 309 663 239.5 665.5 c 128,-1,46
 170 668 170 668 113 647 c 0,47,48
 51 624 51 624 50 641 c 0,49,50
 50 642 50 642 50 644 c 0,51,52
 54 663 54 663 109.5 694.5 c 128,-1,53
 165 726 165 726 233 746 c 0,0,1
EndSplineSet
EndChar

StartChar: S
Encoding: 83 83 28
Width: 618
Flags: W
LayerCount: 2
Fore
SplineSet
376.028320312 -103 m 256,0,1
 376.028320312 -97 376.028320312 -97 385.528320312 -85.5 c 128,-1,2
 395.028320312 -74 395.028320312 -74 395.028320312 -70 c 0,3,4
 395.028320312 -63 395.028320312 -63 409.028320312 -37 c 0,5,6
 423.028320312 -10 423.028320312 -10 423.028320312 50.5 c 128,-1,7
 423.028320312 111 423.028320312 111 408.028320312 155 c 0,8,9
 382.028320312 232 382.028320312 232 303.528320312 325.5 c 128,-1,10
 225.028320312 419 225.028320312 419 124.028320312 495 c 0,11,12
 35.0283203125 562 35.0283203125 562 53.0283203125 580 c 0,13,14
 58.0283203125 585 58.0283203125 585 113.028320312 580 c 0,15,16
 268.028320312 562 268.028320312 562 309.028320312 551 c 0,17,18
 345.028320312 541 345.028320312 541 350.028320312 542 c 128,-1,19
 355.028320312 543 355.028320312 543 355.028320312 560 c 0,20,21
 355.028320312 580 355.028320312 580 334.028320312 606 c 0,22,23
 305.028320312 638 305.028320312 638 302.028320312 642 c 0,24,25
 291.028320312 655 291.028320312 655 245.528320312 694 c 128,-1,26
 200.028320312 733 200.028320312 733 196.028320312 733 c 0,27,28
 191.028320312 733 191.028320312 733 182.028320312 750 c 0,29,30
 173.028320312 767 173.028320312 767 182.028320312 776.5 c 128,-1,31
 191.028320312 786 191.028320312 786 212.028320312 782 c 0,32,33
 234.028320312 779 234.028320312 779 259.028320312 784 c 0,34,35
 317.028320312 798 317.028320312 798 411.528320312 788 c 128,-1,36
 506.028320312 778 506.028320312 778 526.028320312 756 c 0,37,38
 539.028320312 742 539.028320312 742 553.528320312 704 c 128,-1,39
 568.028320312 666 568.028320312 666 568.028320312 644 c 0,40,41
 568.028320312 613 568.028320312 613 558.028320312 613 c 0,42,43
 547.028320312 613 547.028320312 613 506.028320312 656 c 0,44,45
 472.028320312 691 472.028320312 691 459.528320312 700 c 128,-1,46
 447.028320312 709 447.028320312 709 418.028320312 714 c 0,47,48
 377.028320312 722 377.028320312 722 357.028320312 714 c 0,49,50
 337.028320312 704 337.028320312 704 336.028320312 698 c 0,51,52
 336.028320312 691 336.028320312 691 363.028320312 666 c 0,53,54
 389.028320312 641 389.028320312 641 413.028320312 604 c 0,55,56
 428.028320312 580 428.028320312 580 433.528320312 563.5 c 128,-1,57
 439.028320312 547 439.028320312 547 443.028320312 512 c 0,58,59
 449.028320312 464 449.028320312 464 442.528320312 442 c 128,-1,60
 436.028320312 420 436.028320312 420 419.028320312 420 c 0,61,62
 404.028320312 420 404.028320312 420 384.028320312 436 c 0,63,64
 367.028320312 450 367.028320312 450 338.028320312 465 c 128,-1,65
 309.028320312 480 309.028320312 480 299.028320312 480 c 0,66,67
 275.028320312 480 275.028320312 480 305.028320312 442 c 0,68,69
 307.028320312 439 307.028320312 439 311.028320312 435 c 0,70,71
 344.028320312 398 344.028320312 398 389.528320312 325.5 c 128,-1,72
 435.028320312 253 435.028320312 253 454.028320312 207 c 0,73,74
 470.028320312 164 470.028320312 164 474.028320312 144 c 128,-1,75
 478.028320312 124 478.028320312 124 478.028320312 77 c 0,76,77
 478.028320312 28 478.028320312 28 475.028320312 14.5 c 128,-1,78
 472.028320312 1 472.028320312 1 454.028320312 -27 c 0,79,80
 413.028320312 -84 413.028320312 -84 385.028320312 -103 c 0,81,82
 376.028320312 -109 376.028320312 -109 376.028320312 -103 c 256,0,1
EndSplineSet
EndChar

StartChar: T
Encoding: 84 84 29
Width: 584
Flags: W
LayerCount: 2
Fore
SplineSet
314 817 m 128,-1,1
 314 819 314 819 364 819 c 0,2,3
 404 819 404 819 416.5 813.5 c 128,-1,4
 429 808 429 808 468 774 c 0,5,6
 495 751 495 751 514.5 718.5 c 128,-1,7
 534 686 534 686 534 667 c 0,8,9
 534 645 534 645 511.5 623.5 c 128,-1,10
 489 602 489 602 438 578 c 0,11,12
 403 560 403 560 386.5 555.5 c 128,-1,13
 370 551 370 551 332 551 c 0,14,15
 279 550 279 550 254 556 c 0,16,17
 208 566 208 566 243 522 c 0,18,19
 260 502 260 502 278.5 463.5 c 128,-1,20
 297 425 297 425 305 391 c 0,21,22
 333 273 333 273 287 57 c 0,23,24
 275 0 275 0 275 -38 c 2,25,-1
 275 -73 l 1,26,-1
 311 -71 l 2,27,28
 378 -65 378 -65 459 1 c 0,29,30
 501 35 501 35 505 33 c 0,31,32
 508 29 508 29 491 -3.5 c 128,-1,33
 474 -36 474 -36 449 -70 c 2,34,-1
 419 -112 l 1,35,-1
 125 -112 l 1,36,-1
 102 -59 l 2,37,38
 90 -31 90 -31 82.5 -4 c 128,-1,39
 75 23 75 23 75 38 c 128,-1,40
 75 53 75 53 83 54 c 0,41,42
 87 54 87 54 93 47.5 c 128,-1,43
 99 41 99 41 104 32 c 0,44,45
 118 7 118 7 152 -26 c 0,46,47
 175 -49 175 -49 183.5 -54 c 128,-1,48
 192 -59 192 -59 200 -54 c 0,49,50
 207 -49 207 -49 209.5 -30.5 c 128,-1,51
 212 -12 212 -12 214 55 c 0,52,53
 216 153 216 153 208 204 c 0,54,55
 183 347 183 347 150.5 435.5 c 128,-1,56
 118 524 118 524 59 609 c 0,57,58
 35 642 35 642 75 653 c 0,59,60
 88 657 88 657 245 659 c 0,61,62
 387 659 387 659 405 668 c 0,63,64
 418 675 418 675 406 700 c 0,65,66
 404 704 404 704 400 712 c 0,67,68
 385 743 385 743 349.5 779 c 128,-1,0
 314 815 314 815 314 817 c 128,-1,1
EndSplineSet
EndChar

StartChar: U
Encoding: 85 85 30
Width: 582
Flags: W
LayerCount: 2
Fore
SplineSet
125.5234375 761 m 0,0,1
 142.5234375 765 142.5234375 765 204.0234375 761.5 c 128,-1,2
 265.5234375 758 265.5234375 758 286.5234375 758 c 128,-1,3
 307.5234375 758 307.5234375 758 344.5234375 763 c 0,4,5
 378.5234375 767 378.5234375 767 426.0234375 763 c 128,-1,6
 473.5234375 759 473.5234375 759 473.5234375 752 c 0,7,8
 473.5234375 747 473.5234375 747 450.0234375 726 c 128,-1,9
 426.5234375 705 426.5234375 705 426.5234375 692 c 0,10,11
 426.5234375 678 426.5234375 678 452.5234375 628 c 0,12,13
 478.5234375 576 478.5234375 576 494.5234375 534 c 0,14,15
 530.5234375 445 530.5234375 445 532.5234375 330 c 128,-1,16
 534.5234375 215 534.5234375 215 504.5234375 114.5 c 128,-1,17
 474.5234375 14 474.5234375 14 419.5234375 -34 c 0,18,19
 382.5234375 -68 382.5234375 -68 354.0234375 -78 c 128,-1,20
 325.5234375 -88 325.5234375 -88 270.5234375 -88 c 2,21,-1
 202.5234375 -88 l 1,22,-1
 160.5234375 -60 l 2,23,24
 83.5234375 -10 83.5234375 -10 61.5234375 82.5 c 128,-1,25
 39.5234375 175 39.5234375 175 59.5234375 354 c 0,26,27
 69.5234375 444 69.5234375 444 103.5234375 473 c 0,28,29
 110.5234375 479 110.5234375 479 115.5234375 478.5 c 128,-1,30
 120.5234375 478 120.5234375 478 132.5234375 472 c 0,31,32
 152.5234375 460 152.5234375 460 170.5234375 436 c 128,-1,33
 188.5234375 412 188.5234375 412 191.5234375 391 c 0,34,35
 195.5234375 369 195.5234375 369 188.0234375 367.5 c 128,-1,36
 180.5234375 366 180.5234375 366 156.5234375 384 c 0,37,38
 134.5234375 400 134.5234375 400 128.5234375 400 c 0,39,40
 113.5234375 400 113.5234375 400 108.5234375 335 c 128,-1,41
 103.5234375 270 103.5234375 270 116.5234375 224 c 0,42,43
 149.5234375 106 149.5234375 106 213.5234375 39 c 0,44,45
 237.5234375 14 237.5234375 14 256.5234375 4.5 c 128,-1,46
 275.5234375 -5 275.5234375 -5 303.5234375 -5 c 0,47,48
 335.5234375 -5 335.5234375 -5 355.0234375 6.5 c 128,-1,49
 374.5234375 18 374.5234375 18 394.5234375 48 c 0,50,51
 411.5234375 76 411.5234375 76 418.5234375 105.5 c 128,-1,52
 425.5234375 135 425.5234375 135 432.5234375 216 c 0,53,54
 438.5234375 282 438.5234375 282 441.5234375 285 c 256,55,56
 444.5234375 288 444.5234375 288 432.5234375 336 c 0,57,58
 420.5234375 386 420.5234375 386 419.5234375 402 c 0,59,60
 419.5234375 421 419.5234375 421 397.5234375 466 c 0,61,62
 378.5234375 504 378.5234375 504 337.0234375 561 c 128,-1,63
 295.5234375 618 295.5234375 618 280.5234375 626 c 0,64,65
 265.5234375 635 265.5234375 635 232.5234375 663 c 0,66,67
 197.5234375 694 197.5234375 694 148.5234375 717 c 0,68,69
 102.5234375 739 102.5234375 739 103.5234375 749 c 0,70,71
 105.5234375 756 105.5234375 756 125.5234375 761 c 0,0,1
249.5234375 306 m 0,72,73
 283.5234375 316 283.5234375 316 308.0234375 303 c 128,-1,74
 332.5234375 290 332.5234375 290 336.5234375 260 c 0,75,76
 339.5234375 245 339.5234375 245 336.0234375 238.5 c 128,-1,77
 332.5234375 232 332.5234375 232 317.5234375 223 c 0,78,79
 284.5234375 199 284.5234375 199 249.5234375 211 c 128,-1,80
 214.5234375 223 214.5234375 223 214.5234375 257 c 0,81,82
 213.5234375 296 213.5234375 296 249.5234375 306 c 0,72,73
EndSplineSet
EndChar

StartChar: V
Encoding: 86 86 31
Width: 677
Flags: W
LayerCount: 2
Fore
SplineSet
140 762 m 0,0,1
 155 764 155 764 309 765 c 0,2,3
 490 766 490 766 513 755 c 0,4,5
 528 747 528 747 510 720 c 0,6,7
 495 698 495 698 498.5 677.5 c 128,-1,8
 502 657 502 657 529 611 c 0,9,10
 607 487 607 487 623 415 c 0,11,12
 630 380 630 380 627 282 c 0,13,14
 625 219 625 219 621.5 192.5 c 128,-1,15
 618 166 618 166 605 132 c 0,16,17
 582 66 582 66 539.5 9.5 c 128,-1,18
 497 -47 497 -47 446 -81 c 0,19,20
 408 -107 408 -107 393 -96 c 0,21,22
 389 -93 389 -93 389 -88 c 0,23,24
 389 -78 389 -78 441 -24 c 0,25,26
 493 32 493 32 516 81 c 0,27,28
 532 118 532 118 535.5 136 c 128,-1,29
 539 154 539 154 539 214 c 0,30,31
 539 280 539 280 530.5 323.5 c 128,-1,32
 522 367 522 367 497 433 c 0,33,34
 470 506 470 506 416 593 c 0,35,36
 356 693 356 693 326 693 c 0,37,38
 309 693 309 693 279 646 c 128,-1,39
 249 599 249 599 223 531.5 c 128,-1,40
 197 464 197 464 187 411 c 0,41,42
 180 366 180 366 180 291.5 c 128,-1,43
 180 217 180 217 187 171 c 0,44,45
 201 81 201 81 263 -38 c 0,46,47
 290 -89 290 -89 290 -94 c 0,48,49
 290 -98 290 -98 272 -98 c 0,50,51
 256 -98 256 -98 219.5 -64.5 c 128,-1,52
 183 -31 183 -31 157 8 c 0,53,54
 130 46 130 46 103.5 99 c 128,-1,55
 77 152 77 152 77 164 c 0,56,57
 77 178 77 178 64 219 c 0,58,59
 51 262 51 262 50 286 c 0,60,61
 50 305 50 305 63 367 c 128,-1,62
 76 429 76 429 88 467 c 0,63,64
 91 477 91 477 97 496.5 c 128,-1,65
 103 516 103 516 107 528 c 128,-1,66
 111 540 111 540 117 555.5 c 128,-1,67
 123 571 123 571 129 585 c 0,68,69
 145 617 145 617 144 658.5 c 128,-1,70
 143 700 143 700 127 722 c 0,71,72
 114 739 114 739 116 747.5 c 128,-1,73
 118 756 118 756 140 762 c 0,0,1
EndSplineSet
EndChar

StartChar: W
Encoding: 87 87 32
Width: 708
Flags: W
LayerCount: 2
Fore
SplineSet
572.538085938 814 m 256,0,1
 572.538085938 819 572.538085938 819 615.538085938 819 c 128,-1,2
 658.538085938 819 658.538085938 819 658.538085938 814 c 0,3,4
 658.538085938 804 658.538085938 804 646.038085938 746 c 128,-1,5
 633.538085938 688 633.538085938 688 628.538085938 671 c 0,6,7
 621.538085938 651 621.538085938 651 600.538085938 625.5 c 128,-1,8
 579.538085938 600 579.538085938 600 570.538085938 600 c 0,9,10
 564.538085938 600 564.538085938 600 569.538085938 645 c 0,11,12
 572.538085938 676 572.538085938 676 570.538085938 685 c 128,-1,13
 568.538085938 694 568.538085938 694 558.538085938 705 c 0,14,15
 540.538085938 721 540.538085938 721 513.038085938 727.5 c 128,-1,16
 485.538085938 734 485.538085938 734 466.538085938 726 c 0,17,18
 420.538085938 707 420.538085938 707 419.538085938 631 c 0,19,20
 419.538085938 553 419.538085938 553 469.538085938 507 c 0,21,22
 493.538085938 484 493.538085938 484 494.538085938 455.5 c 128,-1,23
 495.538085938 427 495.538085938 427 476.538085938 346 c 0,24,25
 425.538085938 138 425.538085938 138 357.538085938 1 c 0,26,27
 332.538085938 -50 332.538085938 -50 324.038085938 -60 c 128,-1,28
 315.538085938 -70 315.538085938 -70 295.538085938 -75 c 0,29,30
 269.538085938 -80 269.538085938 -80 238.038085938 -76 c 128,-1,31
 206.538085938 -72 206.538085938 -72 206.538085938 -62 c 0,32,33
 206.538085938 -54 206.538085938 -54 228.538085938 -28 c 0,34,35
 255.538085938 4 255.538085938 4 264.538085938 21.5 c 128,-1,36
 273.538085938 39 273.538085938 39 270.538085938 52 c 0,37,38
 265.538085938 67 265.538085938 67 260.538085938 68 c 0,39,40
 248.538085938 68 248.538085938 68 196.538085938 123.5 c 128,-1,41
 144.538085938 179 144.538085938 179 112.538085938 226 c 0,42,43
 89.5380859375 260 89.5380859375 260 78.0380859375 280.5 c 128,-1,44
 66.5380859375 301 66.5380859375 301 58.5380859375 327 c 128,-1,45
 50.5380859375 353 50.5380859375 353 50.0380859375 372 c 128,-1,46
 49.5380859375 391 49.5380859375 391 55.5380859375 424.5 c 128,-1,47
 61.5380859375 458 61.5380859375 458 72.0380859375 490 c 128,-1,48
 82.5380859375 522 82.5380859375 522 101.538085938 579 c 2,49,-1
 137.538085938 680 l 1,50,-1
 113.538085938 722 l 2,51,52
 90.5380859375 765 90.5380859375 765 96.5380859375 771 c 0,53,54
 101.538085938 775 101.538085938 775 312.538085938 779 c 0,55,56
 455.538085938 781 455.538085938 781 493.038085938 783.5 c 128,-1,57
 530.538085938 786 530.538085938 786 547.538085938 796 c 0,58,59
 572.538085938 809 572.538085938 809 572.538085938 814 c 256,0,1
290.538085938 678 m 0,60,61
 265.538085938 706 265.538085938 706 238.038085938 681 c 128,-1,62
 210.538085938 656 210.538085938 656 181.538085938 583 c 0,63,64
 152.538085938 510 152.538085938 510 146.038085938 473 c 128,-1,65
 139.538085938 436 139.538085938 436 146.538085938 395 c 0,66,67
 161.538085938 313 161.538085938 313 215.538085938 224 c 0,68,69
 301.538085938 84 301.538085938 84 325.538085938 146 c 0,70,71
 354.538085938 221 354.538085938 221 366.538085938 330.5 c 128,-1,72
 378.538085938 440 378.538085938 440 366.538085938 510 c 0,73,74
 359.538085938 546 359.538085938 546 334.038085938 602 c 128,-1,75
 308.538085938 658 308.538085938 658 290.538085938 678 c 0,60,61
EndSplineSet
EndChar

StartChar: X
Encoding: 88 88 33
Width: 695
Flags: W
LayerCount: 2
Fore
SplineSet
463 812 m 128,-1,1
 463 819 463 819 476.5 819 c 128,-1,2
 490 819 490 819 490 813 c 128,-1,3
 490 807 490 807 522 775 c 0,4,5
 590 710 590 710 622 579.5 c 128,-1,6
 654 449 654 449 641.5 301 c 128,-1,7
 629 153 629 153 572 42 c 0,8,9
 534 -33 534 -33 486 -68 c 0,10,11
 471 -78 471 -78 448 -79.5 c 128,-1,12
 425 -81 425 -81 316 -80 c 0,13,14
 205 -78 205 -78 179.5 -80 c 128,-1,15
 154 -82 154 -82 119 -94 c 0,16,17
 71 -111 71 -111 60.5 -110.5 c 128,-1,18
 50 -110 50 -110 50 -88 c 0,19,20
 50 -65 50 -65 64.5 -52.5 c 128,-1,21
 79 -40 79 -40 125 -22 c 0,22,23
 176 -3 176 -3 176 10 c 256,24,25
 176 22 176 22 154 67 c 0,26,27
 131 113 131 113 114 166 c 0,28,29
 103 202 103 202 99.5 227 c 128,-1,30
 96 252 96 252 96 311 c 0,31,32
 96 374 96 374 99.5 398 c 128,-1,33
 103 422 103 422 121 475 c 0,34,35
 140 537 140 537 151 561.5 c 128,-1,36
 162 586 162 586 196 642 c 0,37,38
 219 682 219 682 247.5 714 c 128,-1,39
 276 746 276 746 288 746 c 0,40,41
 298 746 298 746 294 734 c 0,42,43
 291 725 291 725 273 691 c 0,44,45
 235 621 235 621 217.5 568.5 c 128,-1,46
 200 516 200 516 195 460 c 0,47,48
 190 398 190 398 190 372.5 c 128,-1,49
 190 347 190 347 196 281 c 0,50,51
 206 182 206 182 245 84 c 0,52,53
 248 78 248 78 253 66 c 0,54,55
 270 22 270 22 279.5 14.5 c 128,-1,56
 289 7 289 7 329 8 c 0,57,58
 340 8 340 8 346 8 c 0,59,60
 396 8 396 8 407.5 10.5 c 128,-1,61
 419 13 419 13 434 30 c 0,62,63
 467 65 467 65 497 145 c 128,-1,64
 527 225 527 225 538 304 c 0,65,66
 545 362 545 362 545 463.5 c 128,-1,67
 545 565 545 565 538 615 c 0,68,69
 530 669 530 669 497 736 c 0,70,0
 463 805 463 805 463 812 c 128,-1,1
EndSplineSet
EndChar

StartChar: Y
Encoding: 89 89 34
Width: 626
Flags: W
LayerCount: 2
Fore
SplineSet
145 775 m 0,0,1
 160 778 160 778 217 776 c 0,2,3
 277 774 277 774 299 760 c 128,-1,4
 321 746 321 746 327 705 c 0,5,6
 330 685 330 685 333.5 679 c 128,-1,7
 337 673 337 673 347 673 c 0,8,9
 365 673 365 673 422.5 691 c 128,-1,10
 480 709 480 709 516 725 c 0,11,12
 559 747 559 747 567 746 c 0,13,14
 590 746 590 746 558 695 c 0,15,16
 553 686 553 686 546 678 c 0,17,18
 432 517 432 517 389 227 c 0,19,20
 387 211 387 211 382.5 182.5 c 128,-1,21
 378 154 378 154 375.5 139 c 128,-1,22
 373 124 373 124 371.5 98.5 c 128,-1,23
 370 73 370 73 370 45 c 2,24,-1
 370 -16 l 1,25,-1
 412 -35 l 2,26,27
 457 -54 457 -54 471 -62.5 c 128,-1,28
 485 -71 485 -71 492 -80 c 0,29,30
 500 -91 500 -91 493 -96 c 0,31,32
 485 -105 485 -105 378 -98 c 128,-1,33
 271 -91 271 -91 226 -79 c 0,34,35
 193 -69 193 -69 151.5 -52 c 128,-1,36
 110 -35 110 -35 95 -25 c 0,37,38
 76 -11 76 -11 63 12.5 c 128,-1,39
 50 36 50 36 50 57 c 0,40,41
 50 91 50 91 84.5 146 c 128,-1,42
 119 201 119 201 140 201 c 0,43,44
 146 201 146 201 151.5 182.5 c 128,-1,45
 157 164 157 164 157 137 c 0,46,47
 157 124 157 124 162.5 114.5 c 128,-1,48
 168 105 168 105 185 90 c 0,49,50
 213 65 213 65 237 52 c 128,-1,51
 261 39 261 39 271 43 c 0,52,53
 285 49 285 49 289.5 141.5 c 128,-1,54
 294 234 294 234 284 331 c 0,55,56
 276 409 276 409 271 437.5 c 128,-1,57
 266 466 266 466 253 510 c 0,58,59
 229 590 229 590 208 632 c 128,-1,60
 187 674 187 674 152 715 c 0,61,62
 133 738 133 738 130.5 754.5 c 128,-1,63
 128 771 128 771 145 775 c 0,0,1
EndSplineSet
EndChar

StartChar: Z
Encoding: 90 90 35
Width: 515
Flags: W
LayerCount: 2
Fore
SplineSet
191.631835938 813 m 0,0,1
 191.631835938 819 191.631835938 819 323.631835938 819 c 2,2,-1
 456.631835938 819 l 1,3,-1
 461.631835938 803 l 2,4,5
 466.631835938 783 466.631835938 783 456.131835938 775 c 128,-1,6
 445.631835938 767 445.631835938 767 419.131835938 770.5 c 128,-1,7
 392.631835938 774 392.631835938 774 334.131835938 766 c 128,-1,8
 275.631835938 758 275.631835938 758 256.631835938 749 c 0,9,10
 237.631835938 739 237.631835938 739 238.631835938 727 c 0,11,12
 240.631835938 720 240.631835938 720 259.631835938 717.5 c 128,-1,13
 278.631835938 715 278.631835938 715 350.631835938 712 c 0,14,15
 459.631835938 709 459.631835938 709 462.631835938 707 c 0,16,17
 468.631835938 704 468.631835938 704 461.631835938 684.5 c 128,-1,18
 454.631835938 665 454.631835938 665 441.631835938 649 c 0,19,20
 394.631835938 594 394.631835938 594 387.631835938 560 c 0,21,22
 383.631835938 537 383.631835938 537 368.631835938 510 c 0,23,24
 348.631835938 470 348.631835938 470 333.131835938 372 c 128,-1,25
 317.631835938 274 317.631835938 274 311.631835938 147 c 0,26,27
 309.631835938 104 309.631835938 104 307.631835938 77.5 c 128,-1,28
 305.631835938 51 305.631835938 51 301.631835938 34.5 c 128,-1,29
 297.631835938 18 297.631835938 18 291.631835938 13 c 128,-1,30
 285.631835938 8 285.631835938 8 277.631835938 9 c 0,31,32
 265.631835938 12 265.631835938 12 253.631835938 41.5 c 128,-1,33
 241.631835938 71 241.631835938 71 239.631835938 106 c 0,34,35
 235.631835938 152 235.631835938 152 217.631835938 213 c 0,36,37
 198.631835938 274 198.631835938 274 197.631835938 291 c 0,38,39
 197.631835938 305 197.631835938 305 172.631835938 387.5 c 128,-1,40
 147.631835938 470 147.631835938 470 127.631835938 526 c 0,41,42
 109.631835938 573 109.631835938 573 78.6318359375 633 c 0,43,44
 56.6318359375 673 56.6318359375 673 52.1318359375 687 c 128,-1,45
 47.6318359375 701 47.6318359375 701 52.6318359375 711 c 256,46,47
 57.6318359375 720 57.6318359375 720 92.6318359375 737.5 c 128,-1,48
 127.631835938 755 127.631835938 755 157.631835938 763 c 0,49,50
 214.631835938 777 214.631835938 777 212.631835938 793 c 0,51,52
 211.631835938 798 211.631835938 798 200.631835938 802 c 0,53,54
 191.631835938 806 191.631835938 806 191.631835938 813 c 0,0,1
EndSplineSet
EndChar

StartChar: a
Encoding: 97 97 36
Width: 571
Flags: W
LayerCount: 2
Fore
SplineSet
82 574 m 0,0,1
 102 576 102 576 288.5 575.5 c 128,-1,2
 475 575 475 575 505 573 c 0,3,4
 520 573 520 573 521.5 563.5 c 128,-1,5
 523 554 523 554 508 550 c 0,6,7
 496 546 496 546 446 499 c 0,8,9
 414 468 414 468 402 451.5 c 128,-1,10
 390 435 390 435 378 403 c 0,11,12
 361 353 361 353 352 353 c 0,13,14
 346 353 346 353 338 369.5 c 128,-1,15
 330 386 330 386 330 399 c 0,16,17
 330 410 330 410 351 464 c 0,18,19
 370 511 370 511 368 528.5 c 128,-1,20
 366 546 366 546 338 551 c 0,21,22
 294 559 294 559 263.5 539.5 c 128,-1,23
 233 520 233 520 212 469 c 0,24,25
 202 441 202 441 199.5 417 c 128,-1,26
 197 393 197 393 197 308 c 2,27,-1
 197 187 l 1,28,-1
 237 105 l 2,29,30
 268 45 268 45 285 20 c 128,-1,31
 302 -5 302 -5 312 -5 c 0,32,33
 320 -5 320 -5 334.5 11 c 128,-1,34
 349 27 349 27 355 43 c 0,35,36
 360 57 360 57 371 60 c 128,-1,37
 382 63 382 63 387 52 c 0,38,39
 389 43 389 43 374 7 c 0,40,41
 358 -28 358 -28 353 -50 c 0,42,43
 347 -79 347 -79 336 -79.5 c 128,-1,44
 325 -80 325 -80 292 -50 c 0,45,46
 258 -18 258 -18 171.5 109.5 c 128,-1,47
 85 237 85 237 76 268 c 0,48,49
 67 304 67 304 74.5 334 c 128,-1,50
 82 364 82 364 114 417 c 2,51,-1
 152 481 l 1,52,-1
 141 504 l 2,53,54
 133 521 133 521 107.5 537 c 128,-1,55
 82 553 82 553 64 553 c 0,56,57
 59 553 59 553 54.5 556 c 128,-1,58
 50 559 50 559 50 562 c 0,59,60
 50 572 50 572 82 574 c 0,0,1
EndSplineSet
EndChar

StartChar: b
Encoding: 98 98 37
Width: 633
Flags: W
LayerCount: 2
Fore
SplineSet
89.8271484375 561 m 0,0,1
 119.827148438 564 119.827148438 564 339.827148438 562 c 0,2,3
 355.827148438 562 355.827148438 562 385.827148438 562 c 0,4,5
 535.827148438 562 535.827148438 562 560.327148438 554.5 c 128,-1,6
 584.827148438 547 584.827148438 547 583.827148438 502 c 0,7,8
 583.827148438 493 583.827148438 493 583.827148438 488 c 0,9,10
 583.827148438 444 583.827148438 444 572.327148438 418 c 128,-1,11
 560.827148438 392 560.827148438 392 532.827148438 374 c 0,12,13
 520.827148438 365 520.827148438 365 488.827148438 352.5 c 128,-1,14
 456.827148438 340 456.827148438 340 445.827148438 340 c 128,-1,15
 434.827148438 340 434.827148438 340 441.827148438 354 c 0,16,17
 445.827148438 361 445.827148438 361 453.827148438 364 c 0,18,19
 468.827148438 369 468.827148438 369 484.827148438 393 c 128,-1,20
 500.827148438 417 500.827148438 417 500.827148438 437 c 0,21,22
 500.827148438 466 500.827148438 466 486.827148438 485 c 128,-1,23
 472.827148438 504 472.827148438 504 441.827148438 518 c 0,24,25
 402.827148438 535 402.827148438 535 347.327148438 539 c 128,-1,26
 291.827148438 543 291.827148438 543 251.827148438 530 c 0,27,28
 225.827148438 522 225.827148438 522 220.327148438 517 c 128,-1,29
 214.827148438 512 214.827148438 512 214.827148438 498 c 0,30,31
 214.827148438 479 214.827148438 479 235.827148438 454 c 0,32,33
 287.827148438 393 287.827148438 393 315.327148438 354.5 c 128,-1,34
 342.827148438 316 342.827148438 316 364.827148438 274 c 0,35,36
 375.827148438 251 375.827148438 251 379.827148438 235 c 128,-1,37
 383.827148438 219 383.827148438 219 383.827148438 190 c 0,38,39
 383.827148438 144 383.827148438 144 374.827148438 128 c 0,40,41
 358.827148438 97 358.827148438 97 302.827148438 47 c 128,-1,42
 246.827148438 -3 246.827148438 -3 182.827148438 -46 c 0,43,44
 77.8271484375 -116 77.8271484375 -116 58.8271484375 -111 c 0,45,46
 46.8271484375 -108 46.8271484375 -108 51.8271484375 -76 c 0,47,48
 57.8271484375 -35 57.8271484375 -35 59.3271484375 75.5 c 128,-1,49
 60.8271484375 186 60.8271484375 186 55.8271484375 215 c 0,50,51
 42.8271484375 278 42.8271484375 278 58.8271484375 302 c 0,52,53
 67.8271484375 313 67.8271484375 313 80.8271484375 299 c 0,54,55
 86.8271484375 292 86.8271484375 292 96.8271484375 227 c 0,56,57
 121.827148438 90 121.827148438 90 158.827148438 54 c 0,58,59
 177.827148438 36 177.827148438 36 192.327148438 38 c 128,-1,60
 206.827148438 40 206.827148438 40 234.827148438 66 c 0,61,62
 252.827148438 83 252.827148438 83 256.827148438 92.5 c 128,-1,63
 260.827148438 102 260.827148438 102 260.827148438 136 c 2,64,-1
 260.827148438 183 l 1,65,-1
 208.827148438 238 l 2,66,67
 162.827148438 286 162.827148438 286 151.827148438 312.5 c 128,-1,68
 140.827148438 339 140.827148438 339 140.827148438 411 c 0,69,70
 140.827148438 455 140.827148438 455 138.327148438 470 c 128,-1,71
 135.827148438 485 135.827148438 485 125.827148438 501 c 0,72,73
 112.827148438 524 112.827148438 524 85.8271484375 536 c 0,74,75
 60.8271484375 548 60.8271484375 548 60.8271484375 553.5 c 128,-1,76
 60.8271484375 559 60.8271484375 559 89.8271484375 561 c 0,0,1
EndSplineSet
EndChar

StartChar: c
Encoding: 99 99 38
Width: 648
Flags: W
LayerCount: 2
Fore
SplineSet
96 561 m 0,0,1
 116 565 116 565 343 564 c 0,2,3
 505 563 505 563 542 561 c 128,-1,4
 579 559 579 559 587 551 c 0,5,6
 595 544 595 544 596.5 497 c 128,-1,7
 598 450 598 450 598 239 c 0,8,9
 598 -61 598 -61 590 -86 c 0,10,11
 582 -110 582 -110 570 -113 c 0,12,13
 563 -114 563 -114 561 -105 c 0,14,15
 561 -104 561 -104 561 -103 c 0,16,17
 561 -101 561 -101 560 -89.5 c 128,-1,18
 559 -78 559 -78 557.5 -54 c 128,-1,19
 556 -30 556 -30 554 -12 c 0,20,21
 543 150 543 150 543 155 c 0,22,23
 533 287 533 287 519 335.5 c 128,-1,24
 505 384 505 384 469 413 c 0,25,26
 453 426 453 426 447 434.5 c 128,-1,27
 441 443 441 443 445.5 448.5 c 128,-1,28
 450 454 450 454 465 457 c 0,29,30
 484 461 484 461 503.5 480 c 128,-1,31
 523 499 523 499 520 509 c 0,32,33
 517 516 517 516 483.5 518 c 128,-1,34
 450 520 450 520 326 520 c 0,35,36
 148 520 148 520 139 514 c 0,37,38
 137 512 137 512 137 509 c 0,39,40
 139 497 139 497 188 473 c 0,41,42
 236 450 236 450 236 446 c 0,43,44
 237 443 237 443 207 413 c 0,45,46
 173 377 173 377 156.5 336.5 c 128,-1,47
 140 296 140 296 126 212 c 0,48,49
 110 115 110 115 110 62 c 0,50,51
 110 17 110 17 98.5 -40.5 c 128,-1,52
 87 -98 87 -98 79 -98 c 0,53,54
 72 -98 72 -98 60 -56 c 0,55,56
 53 -29 53 -29 51 23.5 c 128,-1,57
 49 76 49 76 51 244 c 0,58,59
 52 428 52 428 55 469.5 c 128,-1,60
 58 511 58 511 67 530 c 0,61,62
 79 555 79 555 96 561 c 0,0,1
EndSplineSet
EndChar

StartChar: d
Encoding: 100 100 39
Width: 556
Flags: W
LayerCount: 2
Fore
SplineSet
251.666992188 566 m 0,0,1
 254.666992188 570 254.666992188 570 342.666992188 568.5 c 128,-1,2
 430.666992188 567 430.666992188 567 472.666992188 562 c 0,3,4
 492.666992188 560 492.666992188 560 496.666992188 555.5 c 128,-1,5
 500.666992188 551 500.666992188 551 505.666992188 529 c 0,6,7
 508.666992188 495 508.666992188 495 504.666992188 425 c 0,8,9
 493.666992188 275 493.666992188 275 504.666992188 65 c 0,10,11
 510.666992188 -82 510.666992188 -82 489.666992188 -90 c 0,12,13
 481.666992188 -92 481.666992188 -92 477.166992188 -82 c 128,-1,14
 472.666992188 -72 472.666992188 -72 467.666992188 -30.5 c 128,-1,15
 462.666992188 11 462.666992188 11 458.166992188 78 c 128,-1,16
 453.666992188 145 453.666992188 145 447.666992188 270 c 0,17,18
 441.666992188 391 441.666992188 391 437.666992188 407 c 0,19,20
 432.666992188 423 432.666992188 423 414.166992188 450 c 128,-1,21
 395.666992188 477 395.666992188 477 379.666992188 493 c 0,22,23
 357.666992188 512 357.666992188 512 304.666992188 530.5 c 128,-1,24
 251.666992188 549 251.666992188 549 214.666992188 549 c 0,25,26
 183.666992188 550 183.666992188 550 177.166992188 547.5 c 128,-1,27
 170.666992188 545 170.666992188 545 165.666992188 531 c 0,28,29
 160.666992188 514 160.666992188 514 166.666992188 502 c 128,-1,30
 172.666992188 490 172.666992188 490 195.666992188 475 c 0,31,32
 201.666992188 471 201.666992188 471 215.666992188 462 c 128,-1,33
 229.666992188 453 229.666992188 453 233.666992188 451 c 2,34,-1
 249.666992188 439 l 1,35,-1
 227.666992188 401 l 2,36,37
 205.666992188 365 205.666992188 365 198.666992188 331 c 0,38,39
 193.666992188 312 193.666992188 312 189.666992188 304.5 c 128,-1,40
 185.666992188 297 185.666992188 297 178.666992188 297 c 0,41,42
 166.666992188 297 166.666992188 297 161.166992188 315 c 128,-1,43
 155.666992188 333 155.666992188 333 155.666992188 379 c 0,44,45
 154.666992188 434 154.666992188 434 139.666992188 433 c 0,46,47
 132.666992188 433 132.666992188 433 122.666992188 424 c 0,48,49
 113.666992188 416 113.666992188 416 111.166992188 404 c 128,-1,50
 108.666992188 392 108.666992188 392 108.666992188 361 c 0,51,52
 108.666992188 263 108.666992188 263 139.666992188 213 c 0,53,54
 162.666992188 178 162.666992188 178 260.666992188 92 c 0,55,56
 269.666992188 84 269.666992188 84 272.166992188 76.5 c 128,-1,57
 274.666992188 69 274.666992188 69 272.666992188 52 c 0,58,59
 269.666992188 26 269.666992188 26 278.166992188 4 c 128,-1,60
 286.666992188 -18 286.666992188 -18 312.666992188 -48 c 0,61,62
 351.666992188 -96 351.666992188 -96 325.666992188 -98 c 0,63,64
 308.666992188 -98 308.666992188 -98 278.666992188 -76.5 c 128,-1,65
 248.666992188 -55 248.666992188 -55 180.666992188 5 c 0,66,67
 112.666992188 66 112.666992188 66 73.6669921875 174 c 0,68,69
 56.6669921875 223 56.6669921875 223 52.6669921875 252.5 c 128,-1,70
 48.6669921875 282 48.6669921875 282 50.6669921875 337 c 0,71,72
 52.6669921875 398 52.6669921875 398 65.6669921875 435.5 c 128,-1,73
 78.6669921875 473 78.6669921875 473 113.666992188 524 c 2,74,-1
 138.666992188 560 l 1,75,-1
 192.666992188 560 l 2,76,77
 247.666992188 560 247.666992188 560 251.666992188 566 c 0,0,1
EndSplineSet
EndChar

StartChar: e
Encoding: 101 101 40
Width: 587
Flags: W
LayerCount: 2
Fore
SplineSet
107 575 m 0,0,1
 133 581 133 581 289.5 575.5 c 128,-1,2
 446 570 446 570 523 560 c 0,3,4
 529 559 529 559 532.5 511.5 c 128,-1,5
 536 464 536 464 537 327 c 0,6,7
 538 151 538 151 528 134 c 0,8,9
 522 121 522 121 500 145 c 0,10,11
 497 148 497 148 493 154 c 0,12,13
 469 179 469 179 453 187.5 c 128,-1,14
 437 196 437 196 409.5 198.5 c 128,-1,15
 382 201 382 201 305 201 c 0,16,17
 220 201 220 201 196.5 199 c 128,-1,18
 173 197 173 197 158 187 c 0,19,20
 131 171 131 171 120.5 147.5 c 128,-1,21
 110 124 110 124 110 79 c 256,22,23
 110 34 110 34 123 2 c 128,-1,24
 136 -30 136 -30 168 -59 c 0,25,26
 198 -87 198 -87 229 -94 c 128,-1,27
 260 -101 260 -101 366 -105 c 2,28,-1
 436 -109 l 2,29,30
 419 -110 419 -110 271 -111 c 2,31,-1
 50 -112 l 1,32,-1
 50 93 l 2,33,34
 50 170 50 170 50.5 217.5 c 128,-1,35
 51 265 51 265 53 295 c 128,-1,36
 55 325 55 325 57.5 336 c 128,-1,37
 60 347 60 347 65 347 c 0,38,39
 70 347 70 347 102 312 c 0,40,41
 136 275 136 275 163 268 c 0,42,43
 201 257 201 257 307 262.5 c 128,-1,44
 413 268 413 268 451 284 c 0,45,46
 461 288 461 288 475.5 323.5 c 128,-1,47
 490 359 490 359 490 381 c 0,48,49
 490 408 490 408 480 438 c 128,-1,50
 470 468 470 468 457 482 c 0,51,52
 440 501 440 501 408 517 c 0,53,54
 385 528 385 528 362.5 531 c 128,-1,55
 340 534 340 534 248 534 c 0,56,57
 140 534 140 534 98 537.5 c 128,-1,58
 56 541 56 541 56 550 c 0,59,60
 57 563 57 563 107 575 c 0,0,1
EndSplineSet
EndChar

StartChar: f
Encoding: 102 102 41
Width: 674
Flags: W
LayerCount: 2
Fore
SplineSet
99.6669921875 574 m 0,0,1
 112.666992188 578 112.666992188 578 319.166992188 579 c 128,-1,2
 525.666992188 580 525.666992188 580 569.666992188 575 c 0,3,4
 614.666992188 571 614.666992188 571 614.666992188 562 c 256,5,6
 614.666992188 553 614.666992188 553 601.666992188 553 c 0,7,8
 577.666992188 553 577.666992188 553 521.666992188 515.5 c 128,-1,9
 465.666992188 478 465.666992188 478 417.666992188 431 c 256,10,11
 369.666992188 384 369.666992188 384 368.666992188 376 c 0,12,13
 368.666992188 367 368.666992188 367 477.666992188 367 c 0,14,15
 583.666992188 367 583.666992188 367 605.666992188 364 c 2,16,-1
 624.666992188 359 l 1,17,-1
 624.666992188 257 l 2,18,19
 625.666992188 155 625.666992188 155 618.666992188 155 c 0,20,21
 610.666992188 155 610.666992188 155 590.666992188 193 c 0,22,23
 554.666992188 259 554.666992188 259 509.666992188 273 c 0,24,25
 484.666992188 280 484.666992188 280 375.666992188 281 c 2,26,-1
 262.666992188 281 l 1,27,-1
 230.666992188 232 l 2,28,29
 202.666992188 191 202.666992188 191 167.666992188 123 c 128,-1,30
 132.666992188 55 132.666992188 55 123.666992188 25 c 0,31,32
 98.6669921875 -58 98.6669921875 -58 86.6669921875 -58 c 0,33,34
 80.6669921875 -58 80.6669921875 -58 74.6669921875 -37 c 128,-1,35
 68.6669921875 -16 68.6669921875 -16 68.6669921875 9 c 256,36,37
 68.6669921875 35 68.6669921875 35 94.1669921875 102.5 c 128,-1,38
 119.666992188 170 119.666992188 170 149.666992188 230 c 0,39,40
 185.666992188 302 185.666992188 302 223.166992188 352.5 c 128,-1,41
 260.666992188 403 260.666992188 403 317.666992188 460 c 256,42,43
 374.666992188 516 374.666992188 516 375.666992188 524 c 256,44,45
 375.666992188 532 375.666992188 532 334.666992188 533.5 c 128,-1,46
 293.666992188 535 293.666992188 535 257.666992188 526 c 0,47,48
 195.666992188 515 195.666992188 515 183.666992188 513 c 0,49,50
 157.666992188 508 157.666992188 508 146.166992188 502 c 128,-1,51
 134.666992188 496 134.666992188 496 120.666992188 480 c 0,52,53
 97.6669921875 451 97.6669921875 451 86.6669921875 433 c 0,54,55
 73.6669921875 410 73.6669921875 410 60.6669921875 409 c 0,56,57
 55.6669921875 408 55.6669921875 408 53.1669921875 411.5 c 128,-1,58
 50.6669921875 415 50.6669921875 415 50.1669921875 426 c 128,-1,59
 49.6669921875 437 49.6669921875 437 50.6669921875 456 c 128,-1,60
 51.6669921875 475 51.6669921875 475 55.6669921875 506 c 0,61,62
 59.6669921875 544 59.6669921875 544 66.6669921875 555 c 128,-1,63
 73.6669921875 566 73.6669921875 566 99.6669921875 574 c 0,0,1
EndSplineSet
EndChar

StartChar: g
Encoding: 103 103 42
Width: 534
Flags: W
LayerCount: 2
Fore
SplineSet
76.2607421875 549 m 0,0,1
 94.2607421875 552 94.2607421875 552 252.760742188 552.5 c 128,-1,2
 411.260742188 553 411.260742188 553 437.260742188 549 c 256,3,4
 463.260742188 545 463.260742188 545 465.760742188 538.5 c 128,-1,5
 468.260742188 532 468.260742188 532 450.260742188 518 c 0,6,7
 434.260742188 506 434.260742188 506 434.260742188 500.5 c 128,-1,8
 434.260742188 495 434.260742188 495 456.260742188 458 c 0,9,10
 487.260742188 407 487.260742188 407 484.260742188 354 c 128,-1,11
 481.260742188 301 481.260742188 301 443.260742188 226 c 0,12,13
 419.260742188 178 419.260742188 178 396.760742188 146 c 128,-1,14
 374.260742188 114 374.260742188 114 339.260742188 76 c 0,15,16
 300.260742188 35 300.260742188 35 300.260742188 29.5 c 128,-1,17
 300.260742188 24 300.260742188 24 272.260742188 5 c 0,18,19
 241.260742188 -14 241.260742188 -14 230.260742188 -27 c 0,20,21
 219.260742188 -38 219.260742188 -38 187.760742188 -55 c 128,-1,22
 156.260742188 -72 156.260742188 -72 145.260742188 -72 c 0,23,24
 135.260742188 -72 135.260742188 -72 134.260742188 -66 c 0,25,26
 134.260742188 -61 134.260742188 -61 167.260742188 -33.5 c 128,-1,27
 200.260742188 -6 200.260742188 -6 222.260742188 6 c 0,28,29
 240.260742188 17 240.260742188 17 251.260742188 37 c 0,30,31
 263.260742188 57 263.260742188 57 291.260742188 88 c 0,32,33
 315.260742188 114 315.260742188 114 324.760742188 130 c 128,-1,34
 334.260742188 146 334.260742188 146 355.260742188 197 c 0,35,36
 367.260742188 229 367.260742188 229 370.760742188 248 c 128,-1,37
 374.260742188 267 374.260742188 267 374.260742188 310 c 0,38,39
 374.260742188 351 374.260742188 351 371.260742188 371.5 c 128,-1,40
 368.260742188 392 368.260742188 392 359.260742188 415 c 0,41,42
 337.260742188 467 337.260742188 467 313.760742188 480.5 c 128,-1,43
 290.260742188 494 290.260742188 494 217.260742188 494 c 0,44,45
 161.260742188 494 161.260742188 494 142.260742188 488 c 128,-1,46
 123.260742188 482 123.260742188 482 93.2607421875 458 c 0,47,48
 67.2607421875 439 67.2607421875 439 65.2607421875 441 c 0,49,50
 63.2607421875 442 63.2607421875 442 54.2607421875 484 c 0,51,52
 47.2607421875 518 47.2607421875 518 51.7607421875 531.5 c 128,-1,53
 56.2607421875 545 56.2607421875 545 76.2607421875 549 c 0,0,1
EndSplineSet
EndChar

StartChar: h
Encoding: 104 104 43
Width: 558
Flags: W
LayerCount: 2
Fore
SplineSet
436 562 m 2,0,1
 485 582 485 582 496.5 577 c 128,-1,2
 508 572 508 572 508 528 c 0,3,4
 508 496 508 496 498.5 473.5 c 128,-1,5
 489 451 489 451 465 426 c 0,6,7
 445 404 445 404 434 410 c 128,-1,8
 423 416 423 416 425 446 c 256,9,10
 427 477 427 477 416 485.5 c 128,-1,11
 405 494 405 494 357 494 c 0,12,13
 320 494 320 494 308.5 491 c 128,-1,14
 297 488 297 488 289 479 c 0,15,16
 264 451 264 451 265 437 c 128,-1,17
 266 423 266 423 296 383 c 0,18,19
 316 357 316 357 328.5 347.5 c 128,-1,20
 341 338 341 338 378 319 c 0,21,22
 396 311 396 311 406.5 304.5 c 128,-1,23
 417 298 417 298 421.5 292 c 128,-1,24
 426 286 426 286 424 280.5 c 128,-1,25
 422 275 422 275 415 270 c 0,26,27
 406 264 406 264 386.5 236 c 128,-1,28
 367 208 367 208 307 115 c 0,29,30
 279 70 279 70 257 46 c 0,31,32
 239 27 239 27 225 9 c 0,33,34
 215 -6 215 -6 180.5 -30.5 c 128,-1,35
 146 -55 146 -55 131 -57 c 0,36,37
 99 -64 99 -64 59 -56 c 0,38,39
 50 -54 50 -54 50 -52 c 0,40,41
 54 -45 54 -45 82 -33 c 0,42,43
 144 -2 144 -2 192 71 c 0,44,45
 268 184 268 184 266.5 283.5 c 128,-1,46
 265 383 265 383 188 446 c 0,47,48
 165 464 165 464 120.5 488.5 c 128,-1,49
 76 513 76 513 64 513 c 0,50,51
 60 513 60 513 57 515.5 c 128,-1,52
 54 518 54 518 55 522 c 0,53,54
 58 531 58 531 99.5 535 c 128,-1,55
 141 539 141 539 250 540 c 2,56,-1
 383 540 l 1,57,-1
 436 562 l 2,0,1
EndSplineSet
EndChar

StartChar: i
Encoding: 105 105 44
Width: 459
Flags: W
LayerCount: 2
Fore
SplineSet
83.1923828125 560.5 m 128,-1,1
 98.6923828125 565 98.6923828125 565 228.692382812 565.5 c 128,-1,2
 358.692382812 566 358.692382812 566 384.692382812 562 c 0,3,4
 409.692382812 558 409.692382812 558 409.692382812 551 c 0,5,6
 409.692382812 542 409.692382812 542 381.692382812 510 c 0,7,8
 353.692382812 476 353.692382812 476 347.692382812 466 c 0,9,10
 342.692382812 455 342.692382812 455 320.692382812 446 c 0,11,12
 305.692382812 440 305.692382812 440 302.192382812 433.5 c 128,-1,13
 298.692382812 427 298.692382812 427 298.692382812 397 c 0,14,15
 298.692382812 354 298.692382812 354 277.692382812 281 c 0,16,17
 255.692382812 202 255.692382812 202 255.692382812 177 c 0,18,19
 255.692382812 151 255.692382812 151 243.192382812 104.5 c 128,-1,20
 230.692382812 58 230.692382812 58 224.692382812 56 c 0,21,22
 208.692382812 50 208.692382812 50 209.692382812 311 c 2,23,-1
 209.692382812 467 l 1,24,-1
 189.692382812 467 l 2,25,26
 173.692382812 467 173.692382812 467 145.192382812 454 c 128,-1,27
 116.692382812 441 116.692382812 441 91.6923828125 423 c 0,28,29
 71.6923828125 407 71.6923828125 407 65.6923828125 407 c 0,30,31
 53.6923828125 407 53.6923828125 407 50.6923828125 462.5 c 128,-1,32
 47.6923828125 518 47.6923828125 518 57.6923828125 540 c 0,33,0
 67.6923828125 556 67.6923828125 556 83.1923828125 560.5 c 128,-1,1
EndSplineSet
EndChar

StartChar: j
Encoding: 106 106 45
Width: 628
Flags: W
LayerCount: 2
Fore
SplineSet
254.545898438 563 m 0,0,1
 263.545898438 571 263.545898438 571 394.045898438 562 c 128,-1,2
 524.545898438 553 524.545898438 553 534.545898438 543 c 0,3,4
 535.545898438 543 535.545898438 543 534.045898438 540 c 128,-1,5
 532.545898438 537 532.545898438 537 529.545898438 531.5 c 128,-1,6
 526.545898438 526 526.545898438 526 522.545898438 521 c 0,7,8
 511.545898438 505 511.545898438 505 509.045898438 485 c 128,-1,9
 506.545898438 465 506.545898438 465 515.545898438 456 c 0,10,11
 522.545898438 449 522.545898438 449 537.045898438 404 c 128,-1,12
 551.545898438 359 551.545898438 359 561.545898438 313 c 0,13,14
 573.545898438 259 573.545898438 259 576.545898438 73 c 2,15,-1
 578.545898438 -112 l 1,16,-1
 403.545898438 -112 l 1,17,-1
 431.545898438 -83 l 2,18,19
 471.545898438 -43 471.545898438 -43 494.545898438 45 c 0,20,21
 502.545898438 74 502.545898438 74 502.045898438 173.5 c 128,-1,22
 501.545898438 273 501.545898438 273 492.545898438 304 c 0,23,24
 480.545898438 352 480.545898438 352 455.045898438 387 c 128,-1,25
 429.545898438 422 429.545898438 422 384.545898438 453 c 0,26,27
 371.545898438 462 371.545898438 462 354.545898438 464.5 c 128,-1,28
 337.545898438 467 337.545898438 467 284.545898438 467 c 2,29,-1
 205.545898438 467 l 1,30,-1
 171.545898438 432 l 2,31,32
 141.545898438 401 141.545898438 401 126.045898438 372 c 128,-1,33
 110.545898438 343 110.545898438 343 99.5458984375 299 c 0,34,35
 79.5458984375 213 79.5458984375 213 64.5458984375 220 c 0,36,37
 58.5458984375 223 58.5458984375 223 54.5458984375 246 c 0,38,39
 49.5458984375 277 49.5458984375 277 50.0458984375 373 c 128,-1,40
 50.5458984375 469 50.5458984375 469 57.5458984375 485 c 0,41,42
 64.5458984375 505 64.5458984375 505 95.5458984375 526 c 0,43,44
 115.545898438 539 115.545898438 539 134.045898438 544.5 c 128,-1,45
 152.545898438 550 152.545898438 550 190.545898438 554 c 0,46,47
 252.545898438 560 252.545898438 560 254.545898438 563 c 0,0,1
EndSplineSet
EndChar

StartChar: k
Encoding: 107 107 46
Width: 594
Flags: W
LayerCount: 2
Fore
SplineSet
507 557 m 0,0,1
 512 562 512 562 520 559 c 128,-1,2
 528 556 528 556 532 549 c 0,3,4
 537 538 537 538 522 527 c 0,5,6
 500 510 500 510 498.5 493 c 128,-1,7
 497 476 497 476 511 430 c 0,8,9
 525 377 525 377 536 358 c 0,10,11
 544 343 544 343 544 274 c 0,12,13
 544 213 544 213 531.5 175.5 c 128,-1,14
 519 138 519 138 489 106 c 0,15,16
 456 71 456 71 455 84 c 0,17,18
 455 87 455 87 458 92 c 0,19,20
 477 139 477 139 491 202 c 0,21,22
 497 234 497 234 497.5 250 c 128,-1,23
 498 266 498 266 492 295 c 0,24,25
 483 338 483 338 464 375 c 0,26,27
 447 405 447 405 410.5 445.5 c 128,-1,28
 374 486 374 486 355 496 c 0,29,30
 327 510 327 510 287 518 c 128,-1,31
 247 526 247 526 227 523 c 0,32,33
 183 515 183 515 218 488 c 0,34,35
 234 474 234 474 233.5 467.5 c 128,-1,36
 233 461 233 461 213 458 c 0,37,38
 190 454 190 454 176 436.5 c 128,-1,39
 162 419 162 419 149 381 c 0,40,41
 123 302 123 302 143 187.5 c 128,-1,42
 163 73 163 73 210 29 c 0,43,44
 230 11 230 11 245.5 18 c 128,-1,45
 261 25 261 25 278 60 c 0,46,47
 295 100 295 100 295 111 c 0,48,49
 295 126 295 126 306 120 c 0,50,51
 315 115 315 115 322 99 c 0,52,53
 331 77 331 77 331 20 c 128,-1,54
 331 -37 331 -37 322 -54 c 0,55,56
 316 -64 316 -64 309 -68 c 128,-1,57
 302 -72 302 -72 289 -72 c 0,58,59
 267 -72 267 -72 250 -61.5 c 128,-1,60
 233 -51 233 -51 200 -19 c 0,61,62
 150 28 150 28 111 98 c 128,-1,63
 72 168 72 168 58 237 c 0,64,65
 50 279 50 279 50 303 c 128,-1,66
 50 327 50 327 60 390 c 0,67,68
 65 421 65 421 88.5 471 c 128,-1,69
 112 521 112 521 128 537 c 0,70,71
 136 544 136 544 170.5 546.5 c 128,-1,72
 205 549 205 549 322 551 c 0,73,74
 504 554 504 554 507 557 c 0,0,1
EndSplineSet
EndChar

StartChar: l
Encoding: 108 108 47
Width: 595
Flags: W
LayerCount: 2
Fore
SplineSet
80 562 m 0,0,1
 94 565 94 565 311 564 c 0,2,3
 500 563 500 563 525.5 557 c 128,-1,4
 551 551 551 551 544 529 c 0,5,6
 542 523 542 523 525 489 c 0,7,8
 501 443 501 443 472.5 411.5 c 128,-1,9
 444 380 444 380 426 380 c 0,10,11
 396 380 396 380 419 410 c 0,12,13
 438 436 438 436 418.5 471.5 c 128,-1,14
 399 507 399 507 367 507 c 0,15,16
 347 507 347 507 321 514 c 0,17,18
 283 524 283 524 241 508 c 0,19,20
 211 496 211 496 229 486 c 0,21,22
 232 484 232 484 237 483 c 0,23,24
 252 478 252 478 281 431 c 128,-1,25
 310 384 310 384 320 350 c 0,26,27
 330 310 330 310 330 168 c 2,28,-1
 330 24 l 1,29,-1
 358 -3 l 2,30,31
 387 -31 387 -31 419 -42 c 0,32,33
 461 -56 461 -56 463 -63 c 0,34,35
 464 -66 464 -66 455 -69 c 0,36,37
 443 -73 443 -73 406 -75 c 0,38,39
 361 -79 361 -79 322.5 -77 c 128,-1,40
 284 -75 284 -75 277 -68 c 0,41,42
 273 -64 273 -64 269 103 c 0,43,44
 266 235 266 235 259 279 c 128,-1,45
 252 323 252 323 226 374 c 0,46,47
 212 402 212 402 169.5 443 c 128,-1,48
 127 484 127 484 89 507 c 0,49,50
 50 530 50 530 50 538 c 0,51,52
 50 545 50 545 58.5 551.5 c 128,-1,53
 67 558 67 558 80 562 c 0,0,1
EndSplineSet
EndChar

StartChar: m
Encoding: 109 109 48
Width: 647
Flags: W
LayerCount: 2
Fore
SplineSet
443.642578125 550 m 2,0,1
 447.642578125 551 447.642578125 551 561.642578125 558 c 0,2,3
 581.642578125 560 581.642578125 560 587.642578125 548 c 0,4,5
 596.642578125 526 596.642578125 526 597.642578125 350 c 0,6,7
 597.642578125 338 597.642578125 338 597.642578125 317 c 0,8,9
 597.642578125 157 597.642578125 157 595.642578125 121 c 128,-1,10
 593.642578125 85 593.642578125 85 580.642578125 51 c 0,11,12
 564.642578125 2 564.642578125 2 549.642578125 -24.5 c 128,-1,13
 534.642578125 -51 534.642578125 -51 509.642578125 -79 c 0,14,15
 478.642578125 -112 478.642578125 -112 459.642578125 -112 c 2,16,-1
 441.642578125 -112 l 1,17,-1
 464.642578125 -79 l 2,18,19
 498.642578125 -28 498.642578125 -28 506.642578125 12 c 128,-1,20
 514.642578125 52 514.642578125 52 514.642578125 174 c 0,21,22
 514.642578125 318 514.642578125 318 506.642578125 353 c 0,23,24
 500.642578125 377 500.642578125 377 496.142578125 382 c 128,-1,25
 491.642578125 387 491.642578125 387 477.642578125 387 c 0,26,27
 457.642578125 387 457.642578125 387 445.642578125 369 c 0,28,29
 432.642578125 345 432.642578125 345 401.642578125 318 c 128,-1,30
 370.642578125 291 370.642578125 291 350.642578125 284 c 0,31,32
 334.642578125 279 334.642578125 279 326.142578125 279 c 128,-1,33
 317.642578125 279 317.642578125 279 305.642578125 286 c 0,34,35
 287.642578125 295 287.642578125 295 249.142578125 324 c 128,-1,36
 210.642578125 353 210.642578125 353 195.642578125 370 c 0,37,38
 164.642578125 403 164.642578125 403 136.642578125 373 c 0,39,40
 108.642578125 341 108.642578125 341 108.642578125 274 c 0,41,42
 108.642578125 238 108.642578125 238 104.642578125 206 c 0,43,44
 100.642578125 181 100.642578125 181 96.642578125 180 c 0,45,46
 94.642578125 180 94.642578125 180 91.642578125 184 c 0,47,48
 80.642578125 193 80.642578125 193 75.642578125 196 c 0,49,50
 68.642578125 198 68.642578125 198 61.142578125 253 c 128,-1,51
 53.642578125 308 53.642578125 308 50.642578125 376 c 0,52,53
 47.642578125 453 47.642578125 453 58.642578125 500 c 2,54,-1
 69.642578125 546 l 1,55,-1
 99.642578125 551 l 2,56,57
 124.642578125 554 124.642578125 554 182.642578125 551.5 c 128,-1,58
 240.642578125 549 240.642578125 549 245.642578125 544 c 0,59,60
 249.642578125 541 249.642578125 541 237.642578125 518 c 0,61,62
 221.642578125 486 221.642578125 486 233.142578125 442.5 c 128,-1,63
 244.642578125 399 244.642578125 399 282.642578125 357 c 0,64,65
 310.642578125 325 310.642578125 325 333.642578125 328 c 128,-1,66
 356.642578125 331 356.642578125 331 384.642578125 369 c 0,67,68
 412.642578125 408 412.642578125 408 417.642578125 424 c 128,-1,69
 422.642578125 440 422.642578125 440 419.642578125 487 c 2,70,-1
 416.642578125 546 l 1,71,-1
 443.642578125 550 l 2,0,1
EndSplineSet
EndChar

StartChar: n
Encoding: 110 110 49
Width: 508
Flags: W
LayerCount: 2
Fore
SplineSet
282.876953125 550 m 0,0,1
 282.876953125 546 282.876953125 546 258.876953125 515 c 128,-1,2
 234.876953125 484 234.876953125 484 234.876953125 479 c 0,3,4
 234.876953125 467 234.876953125 467 251.876953125 428.5 c 128,-1,5
 268.876953125 390 268.876953125 390 284.876953125 369 c 0,6,7
 303.876953125 339 303.876953125 339 324.876953125 327 c 0,8,9
 337.876953125 319 337.876953125 319 343.876953125 318 c 128,-1,10
 349.876953125 317 349.876953125 317 362.876953125 325 c 0,11,12
 378.876953125 333 378.876953125 333 396.376953125 363.5 c 128,-1,13
 413.876953125 394 413.876953125 394 418.876953125 425 c 0,14,15
 426.876953125 473 426.876953125 473 442.876953125 472 c 0,16,17
 445.876953125 471 445.876953125 471 448.876953125 468 c 0,18,19
 457.876953125 460 457.876953125 460 458.876953125 395 c 0,20,21
 458.876953125 348 458.876953125 348 455.376953125 332.5 c 128,-1,22
 451.876953125 317 451.876953125 317 431.876953125 282 c 0,23,24
 404.876953125 232 404.876953125 232 379.876953125 212 c 0,25,26
 364.876953125 199 364.876953125 199 357.376953125 197 c 128,-1,27
 349.876953125 195 349.876953125 195 340.876953125 200 c 0,28,29
 326.876953125 208 326.876953125 208 302.876953125 242 c 0,30,31
 278.876953125 275 278.876953125 275 272.876953125 272 c 0,32,33
 265.876953125 269 265.876953125 269 259.876953125 224 c 0,34,35
 255.876953125 180 255.876953125 180 245.876953125 161 c 256,36,37
 235.876953125 142 235.876953125 142 234.876953125 134 c 0,38,39
 234.876953125 123 234.876953125 123 211.876953125 77 c 128,-1,40
 188.876953125 31 188.876953125 31 170.876953125 5 c 0,41,42
 145.876953125 -29 145.876953125 -29 125.876953125 -50.5 c 128,-1,43
 105.876953125 -72 105.876953125 -72 97.876953125 -72 c 0,44,45
 82.876953125 -72 82.876953125 -72 100.876953125 -42 c 0,46,47
 104.876953125 -34 104.876953125 -34 112.876953125 -24 c 0,48,49
 141.876953125 20 141.876953125 20 152.876953125 73.5 c 128,-1,50
 163.876953125 127 163.876953125 127 161.876953125 216 c 2,51,-1
 159.876953125 317 l 1,52,-1
 130.876953125 377 l 2,53,54
 101.876953125 435 101.876953125 435 75.876953125 477 c 0,55,56
 46.876953125 522 46.876953125 522 50.376953125 534 c 128,-1,57
 53.876953125 546 53.876953125 546 97.876953125 555 c 0,58,59
 154.876953125 567 154.876953125 567 218.876953125 565.5 c 128,-1,60
 282.876953125 564 282.876953125 564 282.876953125 550 c 0,0,1
EndSplineSet
EndChar

StartChar: o
Encoding: 111 111 50
Width: 611
Flags: W
LayerCount: 2
Fore
SplineSet
69 574 m 0,0,1
 93 577 93 577 286.5 578 c 128,-1,2
 480 579 480 579 508 575 c 0,3,4
 537 572 537 572 540.5 566 c 128,-1,5
 544 560 544 560 525 545 c 0,6,7
 509 532 509 532 510.5 512.5 c 128,-1,8
 512 493 512 493 534 449 c 0,9,10
 552 411 552 411 555.5 391.5 c 128,-1,11
 559 372 559 372 561 299 c 0,12,13
 563 202 563 202 552 150 c 0,14,15
 534 68 534 68 509 24.5 c 128,-1,16
 484 -19 484 -19 439 -48 c 0,17,18
 395 -77 395 -77 389.5 -70 c 128,-1,19
 384 -63 384 -63 419 -23 c 0,20,21
 445 8 445 8 463 41 c 0,22,23
 473 61 473 61 474.5 78 c 128,-1,24
 476 95 476 95 473 157 c 0,25,26
 469 271 469 271 454 333.5 c 128,-1,27
 439 396 439 396 402 458 c 0,28,29
 377 498 377 498 332 527 c 128,-1,30
 287 556 287 556 259 549 c 0,31,32
 249 547 249 547 246 543 c 128,-1,33
 243 539 243 539 245 529 c 0,34,35
 248 514 248 514 226 488 c 0,36,37
 184 440 184 440 151.5 345 c 128,-1,38
 119 250 119 250 129 210 c 0,39,40
 137 183 137 183 137 166 c 0,41,42
 137 150 137 150 160 104 c 128,-1,43
 183 58 183 58 207 30 c 0,44,45
 240 -12 240 -12 225 -18 c 256,46,47
 211 -24 211 -24 168 14 c 0,48,49
 137 43 137 43 105 99.5 c 128,-1,50
 73 156 73 156 60 205 c 0,51,52
 50 245 50 245 50 330.5 c 128,-1,53
 50 416 50 416 62 443 c 0,54,55
 73 470 73 470 75 508 c 0,56,57
 77 533 77 533 75 540.5 c 128,-1,58
 73 548 73 548 65 553 c 0,59,60
 51 561 51 561 52 566.5 c 128,-1,61
 53 572 53 572 69 574 c 0,0,1
269 347 m 0,62,63
 282 360 282 360 306 360 c 128,-1,64
 330 360 330 360 343 346.5 c 128,-1,65
 356 333 356 333 356 309 c 0,66,67
 356 284 356 284 347 273 c 0,68,69
 331 251 331 251 306 250.5 c 128,-1,70
 281 250 281 250 266 269 c 0,71,72
 255 284 255 284 256.5 309.5 c 128,-1,73
 258 335 258 335 269 347 c 0,62,63
EndSplineSet
EndChar

StartChar: p
Encoding: 112 112 51
Width: 627
Flags: W
LayerCount: 2
Fore
SplineSet
228.142578125 590 m 0,0,1
 233.142578125 594 233.142578125 594 299.142578125 591 c 0,2,3
 570.142578125 575 570.142578125 575 574.142578125 573 c 0,4,5
 580.142578125 571 580.142578125 571 574.142578125 551 c 128,-1,6
 568.142578125 531 568.142578125 531 554.142578125 513 c 0,7,8
 493.142578125 422 493.142578125 422 439.142578125 264 c 0,9,10
 428.142578125 233 428.142578125 233 425.142578125 208.5 c 128,-1,11
 422.142578125 184 422.142578125 184 422.142578125 119 c 0,12,13
 422.142578125 19 422.142578125 19 432.142578125 -18 c 0,14,15
 454.142578125 -98 454.142578125 -98 432.142578125 -97 c 0,16,17
 421.142578125 -97 421.142578125 -97 402.142578125 -71 c 0,18,19
 378.142578125 -38 378.142578125 -38 366.642578125 -10 c 128,-1,20
 355.142578125 18 355.142578125 18 340.142578125 77 c 0,21,22
 325.142578125 135 325.142578125 135 325.642578125 153 c 128,-1,23
 326.142578125 171 326.142578125 171 343.142578125 256 c 0,24,25
 349.142578125 289 349.142578125 289 349.142578125 298 c 0,26,27
 349.142578125 305 349.142578125 305 335.642578125 306.5 c 128,-1,28
 322.142578125 308 322.142578125 308 298.642578125 303.5 c 128,-1,29
 275.142578125 299 275.142578125 299 249.142578125 290 c 0,30,31
 206.142578125 275 206.142578125 275 194.642578125 281 c 128,-1,32
 183.142578125 287 183.142578125 287 176.142578125 328 c 0,33,34
 169.142578125 379 169.142578125 379 136.142578125 447 c 128,-1,35
 103.142578125 515 103.142578125 515 79.142578125 526 c 0,36,37
 67.142578125 533 67.142578125 533 57.142578125 549 c 128,-1,38
 47.142578125 565 47.142578125 565 51.142578125 570 c 0,39,40
 53.142578125 571 53.142578125 571 140.142578125 579.5 c 128,-1,41
 227.142578125 588 227.142578125 588 228.142578125 590 c 0,0,1
421.142578125 539 m 0,42,43
 413.142578125 547 413.142578125 547 291.142578125 547 c 0,44,45
 176.142578125 547 176.142578125 547 166.142578125 538 c 0,46,47
 159.142578125 531 159.142578125 531 183.142578125 504 c 0,48,49
 205.142578125 478 205.142578125 478 229.142578125 428 c 0,50,51
 255.142578125 378 255.142578125 378 266.142578125 367 c 0,52,53
 279.142578125 356 279.142578125 356 318.642578125 348.5 c 128,-1,54
 358.142578125 341 358.142578125 341 367.142578125 348 c 256,55,56
 376.142578125 355 376.142578125 355 376.142578125 364 c 0,57,58
 376.142578125 371 376.142578125 371 403.142578125 426 c 0,59,60
 446.142578125 514 446.142578125 514 421.142578125 539 c 0,42,43
EndSplineSet
EndChar

StartChar: q
Encoding: 113 113 52
Width: 589
Flags: W
LayerCount: 2
Fore
SplineSet
99.3330078125 575 m 0,0,1
 122.333007812 578 122.333007812 578 302.333007812 578.5 c 128,-1,2
 482.333007812 579 482.333007812 579 501.333007812 575 c 0,3,4
 526.333007812 571 526.333007812 571 526.333007812 566 c 256,5,6
 526.333007812 561 526.333007812 561 499.333007812 515 c 0,7,8
 463.333007812 455 463.333007812 455 418.333007812 358 c 128,-1,9
 373.333007812 261 373.333007812 261 357.333007812 209 c 0,10,11
 352.333007812 195 352.333007812 195 350.833007812 187 c 128,-1,12
 349.333007812 179 349.333007812 179 349.833007812 171 c 128,-1,13
 350.333007812 163 350.333007812 163 356.333007812 161.5 c 128,-1,14
 362.333007812 160 362.333007812 160 371.833007812 157 c 128,-1,15
 381.333007812 154 381.333007812 154 398.333007812 155 c 128,-1,16
 415.333007812 156 415.333007812 156 438.333007812 155 c 0,17,18
 506.333007812 157 506.333007812 157 522.833007812 148.5 c 128,-1,19
 539.333007812 140 539.333007812 140 539.333007812 105 c 0,20,21
 539.333007812 75 539.333007812 75 530.833007812 68.5 c 128,-1,22
 522.333007812 62 522.333007812 62 502.333007812 78 c 0,23,24
 487.333007812 89 487.333007812 89 473.333007812 91.5 c 128,-1,25
 459.333007812 94 459.333007812 94 413.333007812 94 c 0,26,27
 412.333007812 94 412.333007812 94 408.333007812 94 c 0,28,29
 357.333007812 94 357.333007812 94 350.333007812 88.5 c 128,-1,30
 343.333007812 83 343.333007812 83 353.333007812 48 c 0,31,32
 354.333007812 46 354.333007812 46 354.333007812 45 c 0,33,34
 360.333007812 20 360.333007812 20 377.333007812 -24 c 128,-1,35
 394.333007812 -68 394.333007812 -68 402.333007812 -79 c 0,36,37
 409.333007812 -92 409.333007812 -92 404.333007812 -96 c 0,38,39
 399.333007812 -101 399.333007812 -101 322.333007812 -103.5 c 128,-1,40
 245.333007812 -106 245.333007812 -106 229.333007812 -101 c 0,41,42
 218.333007812 -99 218.333007812 -99 215.833007812 -94 c 128,-1,43
 213.333007812 -89 213.333007812 -89 215.333007812 -70 c 0,44,45
 217.333007812 -52 217.333007812 -52 235.833007812 5.5 c 128,-1,46
 254.333007812 63 254.333007812 63 256.333007812 73 c 2,47,-1
 262.333007812 94 l 1,48,-1
 108.333007812 94 l 1,49,-1
 91.3330078125 71 l 2,50,51
 74.3330078125 48 74.3330078125 48 64.8330078125 49 c 128,-1,52
 55.3330078125 50 55.3330078125 50 51.3330078125 78 c 256,53,54
 47.3330078125 106 47.3330078125 106 55.3330078125 124.5 c 128,-1,55
 63.3330078125 143 63.3330078125 143 80.3330078125 148 c 0,56,57
 94.3330078125 152 94.3330078125 152 170.333007812 154 c 0,58,59
 196.333007812 154 196.333007812 154 209.333007812 154.5 c 128,-1,60
 222.333007812 155 222.333007812 155 234.333007812 157.5 c 128,-1,61
 246.333007812 160 246.333007812 160 250.333007812 162.5 c 128,-1,62
 254.333007812 165 254.333007812 165 257.833007812 172 c 128,-1,63
 261.333007812 179 261.333007812 179 260.833007812 187 c 128,-1,64
 260.333007812 195 260.333007812 195 257.333007812 210 c 0,65,66
 250.333007812 280 250.333007812 280 207.333007812 368.5 c 128,-1,67
 164.333007812 457 164.333007812 457 102.333007812 529 c 0,68,69
 83.3330078125 553 83.3330078125 553 82.8330078125 562.5 c 128,-1,70
 82.3330078125 572 82.3330078125 572 99.3330078125 575 c 0,0,1
433.333007812 514 m 0,71,72
 433.333007812 520 433.333007812 520 323.333007812 520 c 128,-1,73
 213.333007812 520 213.333007812 520 213.333007812 513 c 0,74,75
 213.333007812 507 213.333007812 507 243.333007812 453 c 0,76,77
 271.333007812 399 271.333007812 399 283.333007812 357 c 0,78,79
 293.333007812 321 293.333007812 321 302.333007812 308.5 c 128,-1,80
 311.333007812 296 311.333007812 296 320.833007812 304 c 128,-1,81
 330.333007812 312 330.333007812 312 341.333007812 343 c 0,82,83
 355.333007812 382 355.333007812 382 396.333007812 446 c 0,84,85
 433.333007812 507 433.333007812 507 433.333007812 514 c 0,71,72
EndSplineSet
EndChar

StartChar: r
Encoding: 114 114 53
Width: 600
Flags: W
LayerCount: 2
Fore
SplineSet
267.069335938 598 m 0,0,1
 298.069335938 602 298.069335938 602 372.569335938 593 c 128,-1,2
 447.069335938 584 447.069335938 584 467.069335938 573 c 0,3,4
 508.069335938 551 508.069335938 551 533.569335938 516.5 c 128,-1,5
 559.069335938 482 559.069335938 482 545.069335938 467 c 0,6,7
 538.069335938 460 538.069335938 460 461.069335938 443 c 0,8,9
 388.069335938 426 388.069335938 426 345.069335938 407.5 c 128,-1,10
 302.069335938 389 302.069335938 389 274.069335938 361 c 0,11,12
 242.069335938 332 242.069335938 332 234.069335938 300.5 c 128,-1,13
 226.069335938 269 226.069335938 269 231.069335938 180 c 0,14,15
 236.069335938 32 236.069335938 32 254.069335938 -43 c 0,16,17
 264.069335938 -85 264.069335938 -85 252.069335938 -85 c 0,18,19
 249.069335938 -85 249.069335938 -85 242.069335938 -81 c 0,20,21
 202.069335938 -55 202.069335938 -55 131.069335938 194 c 0,22,23
 100.069335938 299 100.069335938 299 131.069335938 353 c 0,24,25
 141.069335938 370 141.069335938 370 178.569335938 390 c 128,-1,26
 216.069335938 410 216.069335938 410 297.069335938 441 c 0,27,28
 341.069335938 458 341.069335938 458 354.069335938 466 c 128,-1,29
 367.069335938 474 367.069335938 474 367.069335938 482 c 0,30,31
 367.069335938 495 367.069335938 495 309.069335938 514.5 c 128,-1,32
 251.069335938 534 251.069335938 534 211.069335938 534 c 0,33,34
 193.069335938 534 193.069335938 534 148.569335938 524.5 c 128,-1,35
 104.069335938 515 104.069335938 515 79.0693359375 506 c 0,36,37
 54.0693359375 498 54.0693359375 498 50.5693359375 503.5 c 128,-1,38
 47.0693359375 509 47.0693359375 509 65.0693359375 527 c 0,39,40
 91.0693359375 554 91.0693359375 554 134.569335938 569.5 c 128,-1,41
 178.069335938 585 178.069335938 585 267.069335938 598 c 0,0,1
EndSplineSet
EndChar

StartChar: s
Encoding: 115 115 54
Width: 540
Flags: W
LayerCount: 2
Fore
SplineSet
237 586 m 0,0,1
 298 601 298 601 395 582 c 0,2,3
 434 575 434 575 445.5 569 c 128,-1,4
 457 563 457 563 470 545 c 0,5,6
 489 517 489 517 490 488 c 0,7,8
 490 460 490 460 479.5 460.5 c 128,-1,9
 469 461 469 461 438 488 c 0,10,11
 405 518 405 518 388.5 526 c 128,-1,12
 372 534 372 534 337 534 c 0,13,14
 299 534 299 534 297.5 525.5 c 128,-1,15
 296 517 296 517 327 486 c 0,16,17
 362 452 362 452 373.5 430 c 128,-1,18
 385 408 385 408 385 374 c 0,19,20
 385 335 385 335 377 325 c 0,21,22
 371 318 371 318 362.5 320 c 128,-1,23
 354 322 354 322 326 337 c 0,24,25
 273 367 273 367 253 359 c 0,26,27
 250 358 250 358 250 355 c 0,28,29
 250 350 250 350 287 313 c 0,30,31
 349 252 349 252 393 168 c 0,32,33
 405 143 405 143 408.5 127 c 128,-1,34
 412 111 412 111 412 75 c 0,35,36
 413 34 413 34 409.5 21.5 c 128,-1,37
 406 9 406 9 389 -12 c 0,38,39
 374 -34 374 -34 355.5 -47.5 c 128,-1,40
 337 -61 337 -61 332 -56 c 0,41,42
 330 -54 330 -54 349 -19 c 0,43,44
 373 20 373 20 369 66.5 c 128,-1,45
 365 113 365 113 330 174 c 0,46,47
 312 209 312 209 228.5 282 c 128,-1,48
 145 355 145 355 100 378 c 0,49,50
 81 388 81 388 65.5 402.5 c 128,-1,51
 50 417 50 417 50 425 c 0,52,53
 50 432 50 432 85 433.5 c 128,-1,54
 120 435 120 435 166.5 431.5 c 128,-1,55
 213 428 213 428 244 420 c 0,56,57
 305 405 305 405 309.5 416.5 c 128,-1,58
 314 428 314 428 264 474 c 0,59,60
 216 518 216 518 184 537 c 0,61,62
 149 557 149 557 150.5 570 c 128,-1,63
 152 583 152 583 190 582 c 0,64,65
 214 580 214 580 237 586 c 0,0,1
EndSplineSet
EndChar

StartChar: t
Encoding: 116 116 55
Width: 578
Flags: W
LayerCount: 2
Fore
SplineSet
224.599609375 605 m 0,0,1
 216.599609375 612 216.599609375 612 229.599609375 612 c 0,2,3
 238.599609375 613 238.599609375 613 267.599609375 611 c 0,4,5
 318.599609375 608 318.599609375 608 380.599609375 584 c 0,6,7
 461.599609375 550 461.599609375 550 501.599609375 514 c 128,-1,8
 541.599609375 478 541.599609375 478 522.599609375 456 c 0,9,10
 512.599609375 443 512.599609375 443 474.599609375 427.5 c 128,-1,11
 436.599609375 412 436.599609375 412 386.599609375 399 c 0,12,13
 344.599609375 389 344.599609375 389 327.599609375 388 c 128,-1,14
 310.599609375 387 310.599609375 387 278.599609375 393 c 0,15,16
 230.599609375 402 230.599609375 402 226.599609375 397 c 0,17,18
 221.599609375 393 221.599609375 393 252.599609375 361 c 0,19,20
 280.599609375 333 280.599609375 333 292.599609375 306.5 c 128,-1,21
 304.599609375 280 304.599609375 280 308.599609375 238 c 0,22,23
 311.599609375 204 311.599609375 204 301.599609375 140.5 c 128,-1,24
 291.599609375 77 291.599609375 77 279.599609375 53 c 0,25,26
 270.599609375 36 270.599609375 36 270.599609375 8 c 2,27,-1
 270.599609375 -18 l 1,28,-1
 303.599609375 -18 l 2,29,30
 330.599609375 -18 330.599609375 -18 370.099609375 -6 c 128,-1,31
 409.599609375 6 409.599609375 6 444.599609375 25 c 0,32,33
 488.599609375 49 488.599609375 49 489.599609375 35 c 0,34,35
 490.599609375 34 490.599609375 34 490.599609375 33 c 0,36,37
 490.599609375 13 490.599609375 13 424.599609375 -33 c 128,-1,38
 358.599609375 -79 358.599609375 -79 308.599609375 -92 c 0,39,40
 274.599609375 -102 274.599609375 -102 262.099609375 -102 c 128,-1,41
 249.599609375 -102 249.599609375 -102 219.599609375 -94 c 0,42,43
 175.599609375 -82 175.599609375 -82 151.599609375 -65 c 0,44,45
 116.599609375 -40 116.599609375 -40 83.599609375 18 c 0,46,47
 59.599609375 61 59.599609375 61 74.599609375 61 c 0,48,49
 79.599609375 61 79.599609375 61 110.599609375 35 c 0,50,51
 140.599609375 11 140.599609375 11 156.599609375 3 c 128,-1,52
 172.599609375 -5 172.599609375 -5 190.599609375 -5 c 2,53,-1
 210.599609375 -5 l 1,54,-1
 210.599609375 63 l 2,55,56
 210.599609375 265 210.599609375 265 78.599609375 410 c 0,57,58
 55.599609375 436 55.599609375 436 51.599609375 444.5 c 128,-1,59
 47.599609375 453 47.599609375 453 53.599609375 458 c 0,60,61
 62.599609375 468 62.599609375 468 98.599609375 467 c 0,62,63
 118.599609375 466 118.599609375 466 147.599609375 466 c 0,64,65
 158.599609375 467 158.599609375 467 285.599609375 471 c 0,66,67
 399.599609375 474 399.599609375 474 407.599609375 482 c 0,68,69
 411.599609375 490 411.599609375 490 384.599609375 515 c 0,70,71
 334.599609375 560 334.599609375 560 267.599609375 583 c 0,72,73
 233.599609375 596 233.599609375 596 224.599609375 605 c 0,0,1
EndSplineSet
EndChar

StartChar: u
Encoding: 117 117 56
Width: 581
Flags: W
LayerCount: 2
Fore
SplineSet
135.314453125 589 m 0,0,1
 180.314453125 592 180.314453125 592 319.814453125 590.5 c 128,-1,2
 459.314453125 589 459.314453125 589 463.314453125 585 c 0,3,4
 468.314453125 580 468.314453125 580 445.314453125 560 c 2,5,-1
 422.314453125 542 l 1,6,-1
 441.314453125 506 l 2,7,8
 454.314453125 481 454.314453125 481 485.314453125 424 c 0,9,10
 518.314453125 367 518.314453125 367 527.814453125 289 c 128,-1,11
 537.314453125 211 537.314453125 211 522.314453125 128 c 0,12,13
 507.314453125 50 507.314453125 50 464.814453125 -11 c 128,-1,14
 422.314453125 -72 422.314453125 -72 368.314453125 -92 c 0,15,16
 328.314453125 -106 328.314453125 -106 266.314453125 -105.5 c 128,-1,17
 204.314453125 -105 204.314453125 -105 170.314453125 -89 c 0,18,19
 119.314453125 -65 119.314453125 -65 95.314453125 -35 c 128,-1,20
 71.314453125 -5 71.314453125 -5 57.314453125 52 c 0,21,22
 41.314453125 123 41.314453125 123 60.314453125 257 c 0,23,24
 71.314453125 331 71.314453125 331 99.814453125 353 c 128,-1,25
 128.314453125 375 128.314453125 375 163.314453125 337 c 0,26,27
 178.314453125 322 178.314453125 322 187.814453125 299 c 128,-1,28
 197.314453125 276 197.314453125 276 192.314453125 270 c 0,29,30
 190.314453125 268 190.314453125 268 159.814453125 281 c 128,-1,31
 129.314453125 294 129.314453125 294 128.314453125 294 c 0,32,33
 112.314453125 294 112.314453125 294 108.314453125 247.5 c 128,-1,34
 104.314453125 201 104.314453125 201 116.314453125 158 c 0,35,36
 140.314453125 68 140.314453125 68 206.314453125 6.5 c 128,-1,37
 272.314453125 -55 272.314453125 -55 326.314453125 -38 c 0,38,39
 383.314453125 -19 383.314453125 -19 403.314453125 22 c 0,40,41
 433.314453125 81 433.314453125 81 434.314453125 144 c 0,42,43
 434.314453125 162 434.314453125 162 437.314453125 181 c 128,-1,44
 440.314453125 200 440.314453125 200 439.814453125 213 c 128,-1,45
 439.314453125 226 439.314453125 226 432.314453125 250 c 0,46,47
 420.314453125 289 420.314453125 289 419.314453125 301 c 0,48,49
 419.314453125 317 419.314453125 317 381.814453125 368.5 c 128,-1,50
 344.314453125 420 344.314453125 420 306.314453125 457 c 0,51,52
 269.314453125 492 269.314453125 492 212.814453125 525.5 c 128,-1,53
 156.314453125 559 156.314453125 559 124.314453125 566 c 0,54,55
 101.314453125 570 101.314453125 570 102.314453125 578 c 0,56,57
 102.314453125 586 102.314453125 586 135.314453125 589 c 0,0,1
231.314453125 213 m 0,58,59
 254.314453125 232 254.314453125 232 286.814453125 224.5 c 128,-1,60
 319.314453125 217 319.314453125 217 333.314453125 188 c 0,61,62
 339.314453125 178 339.314453125 178 337.814453125 173 c 128,-1,63
 336.314453125 168 336.314453125 168 324.314453125 157 c 0,64,65
 307.314453125 143 307.314453125 143 279.314453125 140 c 128,-1,66
 251.314453125 137 251.314453125 137 229.314453125 148 c 0,67,68
 212.314453125 157 212.314453125 157 213.314453125 178.5 c 128,-1,69
 214.314453125 200 214.314453125 200 231.314453125 213 c 0,58,59
EndSplineSet
EndChar

StartChar: v
Encoding: 118 118 57
Width: 567
Flags: W
LayerCount: 2
Fore
SplineSet
113.126953125 589 m 0,0,1
 136.126953125 592 136.126953125 592 262.626953125 592 c 128,-1,2
 389.126953125 592 389.126953125 592 409.126953125 589 c 0,3,4
 435.126953125 585 435.126953125 585 434.126953125 573 c 0,5,6
 433.126953125 567 433.126953125 567 424.126953125 564 c 0,7,8
 407.126953125 558 407.126953125 558 417.626953125 521 c 128,-1,9
 428.126953125 484 428.126953125 484 461.126953125 436 c 0,10,11
 478.126953125 409 478.126953125 409 498.126953125 370 c 0,12,13
 511.126953125 342 511.126953125 342 513.626953125 322.5 c 128,-1,14
 516.126953125 303 516.126953125 303 517.126953125 241 c 0,15,16
 517.126953125 159 517.126953125 159 504.126953125 114.5 c 128,-1,17
 491.126953125 70 491.126953125 70 449.126953125 7 c 0,18,19
 424.126953125 -28 424.126953125 -28 410.126953125 -41.5 c 128,-1,20
 396.126953125 -55 396.126953125 -55 374.126953125 -67 c 0,21,22
 337.126953125 -85 337.126953125 -85 330.126953125 -85 c 0,23,24
 313.126953125 -85 313.126953125 -85 327.126953125 -65 c 0,25,26
 333.126953125 -57 333.126953125 -57 342.126953125 -47 c 0,27,28
 391.126953125 -2 391.126953125 -2 426.126953125 67 c 0,29,30
 440.126953125 94 440.126953125 94 443.626953125 110 c 128,-1,31
 447.126953125 126 447.126953125 126 447.126953125 162 c 0,32,33
 447.126953125 289 447.126953125 289 358.126953125 438 c 0,34,35
 327.126953125 490 327.126953125 490 301.626953125 516 c 128,-1,36
 276.126953125 542 276.126953125 542 259.126953125 538 c 0,37,38
 242.126953125 534 242.126953125 534 206.626953125 459 c 128,-1,39
 171.126953125 384 171.126953125 384 157.126953125 321 c 0,40,41
 149.126953125 279 149.126953125 279 149.126953125 214.5 c 128,-1,42
 149.126953125 150 149.126953125 150 158.126953125 118 c 0,43,44
 184.126953125 28 184.126953125 28 197.126953125 5 c 0,45,46
 209.126953125 -18 209.126953125 -18 221.626953125 -44.5 c 128,-1,47
 234.126953125 -71 234.126953125 -71 235.126953125 -77 c 0,48,49
 235.126953125 -107 235.126953125 -107 166.126953125 -37 c 0,50,51
 107.126953125 23 107.126953125 23 77.626953125 88 c 128,-1,52
 48.126953125 153 48.126953125 153 50.126953125 234.5 c 128,-1,53
 52.126953125 316 52.126953125 316 91.126953125 414 c 0,54,55
 115.126953125 474 115.126953125 474 120.126953125 496.5 c 128,-1,56
 125.126953125 519 125.126953125 519 118.126953125 540 c 0,57,58
 111.126953125 563 111.126953125 563 103.126953125 565 c 0,59,60
 89.126953125 569 89.126953125 569 97.126953125 581 c 0,61,62
 103.126953125 587 103.126953125 587 113.126953125 589 c 0,0,1
EndSplineSet
EndChar

StartChar: w
Encoding: 119 119 58
Width: 703
Flags: W
LayerCount: 2
Fore
SplineSet
603 573 m 0,0,1
 611 584 611 584 625.5 585.5 c 128,-1,2
 640 587 640 587 648 577 c 0,3,4
 655 569 655 569 653 533.5 c 128,-1,5
 651 498 651 498 642 466 c 0,6,7
 637 447 637 447 613.5 420 c 128,-1,8
 590 393 590 393 578 393 c 0,9,10
 569 393 569 393 572 420 c 0,11,12
 575 437 575 437 573 445.5 c 128,-1,13
 571 454 571 454 562 464 c 0,14,15
 552 474 552 474 541 477 c 128,-1,16
 530 480 530 480 500 480 c 0,17,18
 455 480 455 480 439 467.5 c 128,-1,19
 423 455 423 455 423 419 c 0,20,21
 423 388 423 388 433 367.5 c 128,-1,22
 443 347 443 347 469 327 c 0,23,24
 486 314 486 314 491 305 c 128,-1,25
 496 296 496 296 496 278 c 0,26,27
 496 235 496 235 461 147 c 128,-1,28
 426 59 426 59 380.5 -14.5 c 128,-1,29
 335 -88 335 -88 309 -97 c 0,30,31
 281 -107 281 -107 245.5 -104 c 128,-1,32
 210 -101 210 -101 210 -89 c 0,33,34
 210 -81 210 -81 245 -51 c 0,35,36
 274 -25 274 -25 275 -13 c 128,-1,37
 276 -1 276 -1 249 13 c 0,38,39
 219 28 219 28 169.5 67 c 128,-1,40
 120 106 120 106 105 126 c 0,41,42
 83 152 83 152 66.5 185.5 c 128,-1,43
 50 219 50 219 50 238 c 0,44,45
 50 257 50 257 67 291 c 0,46,47
 137 439 137 439 136 452 c 0,48,49
 136 462 136 462 116 488 c 0,50,51
 96 514 96 514 100 518 c 0,52,53
 104 523 104 523 162 520 c 0,54,55
 239 517 239 517 336 518 c 128,-1,56
 433 519 433 519 476 523 c 0,57,58
 521 527 521 527 557 541 c 128,-1,59
 593 555 593 555 603 573 c 0,0,1
329 403 m 0,60,61
 300 446 300 446 283 456 c 128,-1,62
 266 466 266 466 244 453 c 0,63,64
 211 434 211 434 175.5 364.5 c 128,-1,65
 140 295 140 295 145 259 c 0,66,67
 148 234 148 234 165.5 197 c 128,-1,68
 183 160 183 160 207 131 c 0,69,70
 227 102 227 102 261 75 c 128,-1,71
 295 48 295 48 309 48 c 0,72,73
 326 48 326 48 351 125.5 c 128,-1,74
 376 203 376 203 376 259 c 0,75,76
 376 300 376 300 365.5 332.5 c 128,-1,77
 355 365 355 365 329 403 c 0,60,61
EndSplineSet
EndChar

StartChar: x
Encoding: 120 120 59
Width: 695
Flags: W
LayerCount: 2
Fore
SplineSet
463 553 m 0,0,1
 463 571 463 571 504 546 c 0,2,3
 533 528 533 528 557 501 c 0,4,5
 613 442 613 442 628 364 c 0,6,7
 644 283 644 283 645.5 257 c 128,-1,8
 647 231 647 231 638 179 c 0,9,10
 625 99 625 99 589 34.5 c 128,-1,11
 553 -30 553 -30 504 -59 c 0,12,13
 487 -70 487 -70 457.5 -73 c 128,-1,14
 428 -76 428 -76 296 -79 c 0,15,16
 111 -84 111 -84 87 -90 c 0,17,18
 59 -98 59 -98 54.5 -97 c 128,-1,19
 50 -96 50 -96 50 -83 c 0,20,21
 50 -69 50 -69 73 -54 c 128,-1,22
 96 -39 96 -39 135 -29 c 0,23,24
 176 -17 176 -17 176 -11.5 c 128,-1,25
 176 -6 176 -6 158 23 c 0,26,27
 141 49 141 49 117 96 c 0,28,29
 102 129 102 129 99 145 c 128,-1,30
 96 161 96 161 98 210 c 0,31,32
 100 251 100 251 104.5 272 c 128,-1,33
 109 293 109 293 120 315 c 0,34,35
 136 354 136 354 170 403.5 c 128,-1,36
 204 453 204 453 223 469 c 0,37,38
 241 484 241 484 262.5 496 c 128,-1,39
 284 508 284 508 287 505 c 256,40,41
 290 502 290 502 275.5 476.5 c 128,-1,42
 261 451 261 451 249 437 c 0,43,44
 223 407 223 407 205 350 c 128,-1,45
 187 293 187 293 188 244 c 0,46,47
 189 181 189 181 214 109.5 c 128,-1,48
 239 38 239 38 271 3 c 0,49,50
 286 -12 286 -12 296 -15 c 128,-1,51
 306 -18 306 -18 344 -18 c 0,52,53
 395 -18 395 -18 425 -5 c 0,54,55
 451 9 451 9 461.5 22.5 c 128,-1,56
 472 36 472 36 499 91 c 0,57,58
 549 191 549 191 549 313 c 0,59,60
 549 383 549 383 534.5 428.5 c 128,-1,61
 520 474 520 474 485 517 c 0,62,63
 463 545 463 545 463 553 c 0,0,1
EndSplineSet
EndChar

StartChar: y
Encoding: 121 121 60
Width: 548
Flags: W
LayerCount: 2
Fore
SplineSet
124.709960938 551 m 0,0,1
 132.709960938 557 132.709960938 557 262.709960938 547 c 0,2,3
 271.709960938 546 271.709960938 546 274.709960938 517 c 0,4,5
 279.709960938 483 279.709960938 483 292.209960938 479 c 128,-1,6
 304.709960938 475 304.709960938 475 351.709960938 489 c 0,7,8
 401.709960938 503 401.709960938 503 437.709960938 519 c 0,9,10
 490.709960938 543 490.709960938 543 496.709960938 527 c 0,11,12
 497.709960938 526 497.709960938 526 498.709960938 524 c 0,13,14
 498.709960938 516 498.709960938 516 467.709960938 480 c 0,15,16
 381.709960938 374 381.709960938 374 342.709960938 187 c 0,17,18
 302.709960938 -4 302.709960938 -4 327.709960938 -24 c 0,19,20
 332.709960938 -29 332.709960938 -29 367.709960938 -42 c 0,21,22
 392.709960938 -50 392.709960938 -50 408.709960938 -61 c 128,-1,23
 424.709960938 -72 424.709960938 -72 424.709960938 -80 c 1,24,25
 418.709960938 -85 418.709960938 -85 376.209960938 -84 c 128,-1,26
 333.709960938 -83 333.709960938 -83 272.209960938 -76.5 c 128,-1,27
 210.709960938 -70 210.709960938 -70 179.709960938 -61 c 0,28,29
 116.709960938 -45 116.709960938 -45 89.2099609375 -29.5 c 128,-1,30
 61.7099609375 -14 61.7099609375 -14 53.7099609375 9 c 0,31,32
 37.7099609375 61 37.7099609375 61 90.7099609375 108 c 0,33,34
 136.709960938 147 136.709960938 147 136.709960938 125 c 0,35,36
 136.709960938 121 136.709960938 121 135.709960938 114 c 0,37,38
 132.709960938 101 132.709960938 101 136.209960938 92.5 c 128,-1,39
 139.709960938 84 139.709960938 84 155.709960938 67 c 0,40,41
 199.709960938 22 199.709960938 22 230.709960938 22 c 0,42,43
 237.709960938 22 237.709960938 22 241.709960938 30 c 128,-1,44
 245.709960938 38 245.709960938 38 248.709960938 67 c 0,45,46
 252.709960938 109 252.709960938 109 252.709960938 134 c 128,-1,47
 252.709960938 159 252.709960938 159 246.709960938 224 c 0,48,49
 237.709960938 318 237.709960938 318 213.709960938 383.5 c 128,-1,50
 189.709960938 449 189.709960938 449 147.709960938 496 c 0,51,52
 124.709960938 521 124.709960938 521 120.709960938 532 c 128,-1,53
 116.709960938 543 116.709960938 543 124.709960938 551 c 0,0,1
EndSplineSet
EndChar

StartChar: z
Encoding: 122 122 61
Width: 356
Flags: W
LayerCount: 2
Fore
SplineSet
87.7646484375 550 m 2,0,1
 113.764648438 564 113.764648438 564 204.764648438 551 c 128,-1,2
 295.764648438 538 295.764648438 538 299.764648438 518 c 0,3,4
 303.764648438 493 303.764648438 493 224.764648438 494 c 0,5,6
 167.764648438 494 167.764648438 494 167.764648438 468 c 0,7,8
 167.764648438 459 167.764648438 459 219.764648438 461 c 0,9,10
 306.764648438 462 306.764648438 462 306.764648438 444 c 0,11,12
 306.764648438 436 306.764648438 436 284.264648438 409.5 c 128,-1,13
 261.764648438 383 261.764648438 383 257.264648438 360.5 c 128,-1,14
 252.764648438 338 252.764648438 338 244.764648438 321 c 0,15,16
 239.764648438 310 239.764648438 310 233.764648438 276 c 128,-1,17
 227.764648438 242 227.764648438 242 221.764648438 202 c 128,-1,18
 215.764648438 162 215.764648438 162 213.764648438 153 c 0,19,20
 207.764648438 121 207.764648438 121 207.764648438 83 c 0,21,22
 207.764648438 -4 207.764648438 -4 189.764648438 -5 c 0,23,24
 172.764648438 -7 172.764648438 -7 161.764648438 74 c 0,25,26
 152.764648438 143 152.764648438 143 117.264648438 263 c 128,-1,27
 81.7646484375 383 81.7646484375 383 60.7646484375 418 c 0,28,29
 51.7646484375 433 51.7646484375 433 50.2646484375 440 c 128,-1,30
 48.7646484375 447 48.7646484375 447 55.7646484375 458 c 0,31,32
 60.7646484375 468 60.7646484375 468 82.2646484375 481 c 128,-1,33
 103.764648438 494 103.764648438 494 129.764648438 502 c 0,34,35
 140.764648438 507 140.764648438 507 141.764648438 513 c 256,36,37
 141.764648438 519 141.764648438 519 121.264648438 529.5 c 128,-1,38
 100.764648438 540 100.764648438 540 86.7646484375 540 c 2,39,-1
 71.7646484375 540 l 1,40,-1
 87.7646484375 550 l 2,0,1
EndSplineSet
EndChar

StartChar: quoteright
Encoding: 260 8217 62
Width: 213
Flags: W
LayerCount: 2
Fore
SplineSet
115 740 m 0,0,1
 126 753 126 753 132.5 751 c 128,-1,2
 139 749 139 749 150 725 c 0,3,4
 178 665 178 665 148 620 c 0,5,6
 133 597 133 597 100 515 c 256,7,8
 68 433 68 433 59 433 c 128,-1,9
 50 433 50 433 50 443.5 c 128,-1,10
 50 454 50 454 59 497 c 0,11,12
 60 503 60 503 86 636 c 0,13,14
 104 728 104 728 115 740 c 0,0,1
EndSplineSet
EndChar
